<svg width="184" height="17" xmlns="http://www.w3.org/2000/svg"><path d="M4.436.643a4.779 4.779 0 00-.293.264c-.229.213-.296.273-.307.273-.008 0-.468.031-1.022.07l-1.008.071-.599.1-.598.101-.305.271A8.997 8.997 0 000 2.07c0 .003.058.094.129.202l.128.197h.818l.725.386.725.387.444-.041.445-.042.108-.075.116-.08a20.833 20.833 0 00-.167.187.232.232 0 01-.04.037l-.44.097-.432.095s-.006.537-.011 1.191l-.01 1.19.73.919.73.919.3.075.73.184c.239.06.434.107.434.106a130.505 130.505 0 01.043-.633l.095.336.093.333.924 1.872.925 1.871-.223 1.862-.223 1.86-.026.03c-.014.016-.125.14-.247.273l-.221.243.596.001h.598l.407-2.105.405-2.103-.01-1.67c-.007-.919-.011-1.671-.01-1.672l.432.126 1.073.317.699.207.058.017 1.124-.207c.618-.114 1.13-.21 1.138-.212.01-.003.053-.073.195-.32.1-.174.186-.328.193-.342.008-.014.04-.118.073-.232l.06-.206.004.085.005.214v.13l-.08.323-.081.322.095 1.303.096 1.303.352 1.035.352 1.034-.05 1.02-.051 1.05v.028l-.196.277-.195.277h.576c.317.002.577.001.578 0 .002-.001.054-.601.117-1.333l.114-1.331-.068-.997a367.91 367.91 0 01-.07-1.034l-.002-.037.682-1.193.69-1.206c.003-.007.075-.397.158-.867l.155-.857c.002-.002.085.03.186.072l.183.075.104.19.104.19.073.274.072.274.038.286c.02.157.04.292.041.301.002.011.049.057.176.171.115.104.177.155.185.155l.327.02c.174.012.317.02.318.02a3.886 3.886 0 00-.07-.202l-.074-.198-.36-.284-.363-.288a8.095 8.095 0 01-.068-.312l-.064-.309-.136-.31-.137-.31-.252-.165-.253-.165-.052-.213-.052-.213-.06-.043a19279.839 19279.839 0 01-2.91-2.078l-1.93-1.378-.554-.014-.554-.015L8.199 4.25A214.4 214.4 0 015.432 5.9l-.235.13-.36-.24a58.162 58.162 0 01-.366-.246c-.002-.002-.01-1.104-.019-2.449A1036.03 1036.03 0 004.436.642zM41.214 15.49c1.526 0 2.787-.634 3.785-1.904l.924.788c-1.247 1.547-2.846 2.32-4.797 2.32-1.13 0-2.135-.24-3.015-.722a5.375 5.375 0 01-2.069-2.057c-.484-.89-.726-1.897-.726-3.021 0-1.11.242-2.102.726-2.977a5.114 5.114 0 012.025-2.036c.88-.496 1.878-.744 2.993-.744 1.364 0 2.516.38 3.455 1.138.939.759 1.511 1.795 1.717 3.108l-9.156 3.24c.309.89.83 1.59 1.563 2.102.734.51 1.592.766 2.575.766zm-.132-9.127c-1.291 0-2.333.408-3.125 1.226-.778.802-1.167 1.89-1.167 3.261 0 .146.015.365.044.657l7.88-2.846c-.294-.759-.757-1.328-1.387-1.707-.631-.394-1.38-.591-2.245-.591zm12.213.618c0-1.982.568-3.534 1.705-4.656C56.136 1.203 57.708.642 59.716.642c2.007 0 3.58.561 4.716 1.683C65.569 3.447 66.137 5 66.137 6.981v9.072h-1.528v-4.525h-9.786v4.525h-1.528V6.98zm11.314 0c0-1.56-.435-2.776-1.306-3.65-.856-.89-2.052-1.334-3.587-1.334-1.535 0-2.738.445-3.61 1.334-.855.874-1.283 2.09-1.283 3.65v3.192h9.786V6.98zm12.018.881c.388-.88.94-1.546 1.658-2 .731-.469 1.605-.71 2.62-.725V6.52c-1.24-.014-2.24.344-3.001 1.077-.747.718-1.172 1.7-1.277 2.944v6.153h-1.5V5.18h1.5v2.68zm21.615-2.638v11.384h-1.461v-2.564A4.768 4.768 0 0194.949 16c-.785.463-1.694.695-2.726.695-1.076 0-2.035-.246-2.878-.739a5.078 5.078 0 01-1.963-2.064c-.465-.883-.698-1.883-.698-2.998 0-1.115.233-2.107.698-2.976a5.158 5.158 0 011.94-2.042c.844-.493 1.796-.74 2.858-.74 1.046 0 1.962.233 2.747.696a4.726 4.726 0 011.854 1.955V5.224h1.461zm-5.757 10.21c1.178 0 2.159-.369 2.944-1.107.785-.753 1.236-1.731 1.352-2.933v-.913c-.116-1.202-.567-2.18-1.352-2.933-.785-.767-1.766-1.151-2.944-1.151-.829 0-1.57.195-2.224.586a4.186 4.186 0 00-1.549 1.63c-.378.68-.567 1.456-.567 2.325 0 .869.182 1.643.545 2.324.378.68.895 1.217 1.549 1.608.669.376 1.417.565 2.246.565zM113.273 4.66c1.066 0 2.014.245 2.846.734a4.924 4.924 0 011.97 2.028c.467.863.7 1.849.7 2.956 0 1.093-.233 2.071-.7 2.934a5.146 5.146 0 01-1.948 2.029c-.832.474-1.78.712-2.846.712-1.05 0-1.97-.23-2.758-.69a4.904 4.904 0 01-1.839-1.964v2.61h-1.466V0h1.466v7.314a4.614 4.614 0 011.817-1.942c.803-.474 1.722-.712 2.758-.712zm-.262 10.141c.817 0 1.554-.187 2.21-.56a4.06 4.06 0 001.533-1.597c.365-.676.547-1.446.547-2.309 0-.849-.182-1.611-.547-2.287a3.912 3.912 0 00-1.533-1.575c-.656-.389-1.393-.583-2.21-.583-.832 0-1.577.194-2.233.583a4.11 4.11 0 00-1.533 1.575c-.364.676-.547 1.438-.547 2.287 0 .863.183 1.633.547 2.309a4.06 4.06 0 001.533 1.596c.656.374 1.4.561 2.233.561zm13.111-9.757h1.388v11.65h-1.388V5.045zm.704-4.402c.276 0 .504.104.684.311.18.193.269.438.269.734 0 .297-.097.549-.29.756a.843.843 0 01-.663.311.927.927 0 01-.704-.311c-.18-.207-.27-.46-.27-.756s.09-.54.27-.734a.927.927 0 01.704-.31zm17.918 7.144c-.94-.905-2.095-1.358-3.462-1.358-.823 0-1.565.19-2.226.57a3.956 3.956 0 00-1.544 1.597c-.367.672-.55 1.445-.55 2.32 0 .876.183 1.657.55 2.343a3.956 3.956 0 001.544 1.598c.661.38 1.403.57 2.226.57.75 0 1.433-.132 2.05-.395a4.165 4.165 0 001.588-1.138l.838.875a5.147 5.147 0 01-1.94 1.423c-.78.336-1.646.504-2.602.504-1.102 0-2.087-.241-2.954-.723a5.425 5.425 0 01-2.05-2.057c-.485-.89-.728-1.89-.728-3 0-1.108.243-2.1.728-2.976a5.229 5.229 0 012.05-2.058c.867-.496 1.852-.744 2.954-.744.897 0 1.713.146 2.447.438.75.292 1.39.7 1.919 1.225l-.838.986zm8.387 6.982c.274 0 .505.092.693.276a.91.91 0 01.281.677.981.981 0 01-.281.699.952.952 0 01-.693.275.952.952 0 01-.692-.275.977.977 0 01-.26-.699.95.95 0 01.26-.677.952.952 0 01.692-.276zm8.949-9.724h1.388v11.65h-1.388V5.045zm.704-4.402c.276 0 .504.104.684.311.18.193.269.438.269.734 0 .297-.097.549-.29.756a.843.843 0 01-.663.311.927.927 0 01-.704-.311c-.18-.207-.27-.46-.27-.756s.09-.54.27-.734a.927.927 0 01.704-.31zm14.437 4.495c1.11 0 2.101.248 2.977.744a5.209 5.209 0 012.058 2.036c.496.875.744 1.868.744 2.977 0 1.124-.248 2.13-.744 3.02a5.36 5.36 0 01-2.058 2.058c-.876.482-1.868.723-2.977.723-1.109 0-2.101-.241-2.977-.723a5.36 5.36 0 01-2.058-2.057c-.496-.89-.744-1.897-.744-3.021 0-1.11.248-2.102.744-2.977a5.209 5.209 0 012.058-2.036c.876-.496 1.868-.744 2.977-.744zm0 1.27c-.832 0-1.576.19-2.233.569a3.944 3.944 0 00-1.532 1.598c-.365.685-.547 1.466-.547 2.342 0 .89.182 1.678.547 2.364a3.944 3.944 0 001.532 1.598c.657.38 1.401.569 2.233.569.832 0 1.576-.19 2.233-.57a3.944 3.944 0 001.532-1.597c.365-.686.547-1.474.547-2.364 0-.876-.182-1.657-.547-2.342a3.944 3.944 0 00-1.532-1.598c-.657-.38-1.401-.57-2.233-.57z" fill="#FF7A59"/></svg>