<?xml version="1.0" encoding="UTF-8"?>
<svg width="60px" height="60px" viewBox="0 0 60 60" version="1.1" xmlns="http://www.w3.org/2000/svg" xmlns:xlink="http://www.w3.org/1999/xlink">
    <title>Textures / wave lines Copy 4</title>
    <defs>
        <rect id="path-1" x="0" y="0" width="60" height="60" rx="12"></rect>
    </defs>
    <g id="Symbols" stroke="none" stroke-width="1" fill="none" fill-rule="evenodd">
        <g id="Ilustrations-/-Step-#2" transform="translate(-32.000000, -132.000000)">
            <g id="Texture-Bottom" transform="translate(32.000000, 132.000000)">
                <mask id="mask-2" fill="white">
                    <use xlink:href="#path-1"></use>
                </mask>
                <g id="Mask"></g>
                <path d="M56.342625,72.375 C60.1491354,72.375 62.1333558,72.9145967 65.451529,74.4952357 L65.7996761,74.6624842 C69.1236314,76.2719529 70.9955833,76.8372552 74.5554618,76.8731537 L74.929875,76.875 L74.929875,77.625 C71.1233646,77.625 69.1391442,77.0854033 65.820971,75.5047643 L65.4728239,75.3375158 C62.0342494,73.6725481 60.1495431,73.125 56.342625,73.125 C52.6624436,73.125 50.778497,73.6366698 47.5509058,75.1747255 L46.8638132,75.5048276 C43.5456917,77.0854091 41.561446,77.625 37.755,77.625 C33.9489355,77.625 31.9649445,77.0854003 28.6471638,75.504757 L28.2990579,75.337508 C24.8609091,73.6725449 22.9764419,73.125 19.17,73.125 C15.4902789,73.125 13.6065711,73.6366668 10.3793799,75.1747181 L9.69237039,75.5048203 C6.37464143,77.0854061 4.39062508,77.625 0.584625,77.625 C-3.22144748,77.625 -5.20548761,77.085384 -8.52317694,75.5047542 L-9.21015873,75.1746521 C-12.3258509,73.6896793 -14.1891584,73.1615062 -17.6256553,73.1268462 L-18,73.125 L-18,72.375 C-14.1941486,72.375 -12.2102087,72.9145949 -8.89261053,74.4951822 L-8.20562875,74.8252843 C-4.97857081,76.3633342 -3.09494262,76.875 0.584625,76.875 C4.26412405,76.875 6.14773239,76.3633545 9.37483262,74.8253455 L9.71359178,74.6625588 C13.2449933,72.9524715 15.2325299,72.375 19.17,72.375 C22.9760645,72.375 24.9600555,72.9145997 28.2778362,74.495243 L28.6259421,74.662492 C32.0640909,76.3274551 33.9485581,76.875 37.755,76.875 C41.4349594,76.875 43.3188066,76.3633515 46.5463067,74.8253382 L46.8851078,74.662551 C50.4169274,72.9524683 52.4046936,72.375 56.342625,72.375 Z M56.342625,67.875 C60.1491354,67.875 62.1333558,68.4145967 65.451529,69.9952357 L65.7996761,70.1624842 C69.1236314,71.7719529 70.9955833,72.3372552 74.5554618,72.3731537 L74.929875,72.375 L74.929875,73.125 C71.1233646,73.125 69.1391442,72.5854033 65.820971,71.0047643 L65.4728239,70.8375158 C62.0342494,69.1725481 60.1495431,68.625 56.342625,68.625 C52.6624436,68.625 50.778497,69.1366698 47.5509058,70.6747255 L46.8638132,71.0048276 C43.5456917,72.5854091 41.561446,73.125 37.755,73.125 C33.9489355,73.125 31.9649445,72.5854003 28.6471638,71.004757 L28.2990579,70.837508 C24.8609091,69.1725449 22.9764419,68.625 19.17,68.625 C15.4902789,68.625 13.6065711,69.1366668 10.3793799,70.6747181 L9.69237039,71.0048203 C6.37464143,72.5854061 4.39062508,73.125 0.584625,73.125 C-3.22144748,73.125 -5.20548761,72.585384 -8.52317694,71.0047542 L-9.21015873,70.6746521 C-12.3258509,69.1896793 -14.1891584,68.6615062 -17.6256553,68.6268462 L-18,68.625 L-18,67.875 C-14.1941486,67.875 -12.2102087,68.4145949 -8.89261053,69.9951822 L-8.20562875,70.3252843 C-4.97857081,71.8633342 -3.09494262,72.375 0.584625,72.375 C4.26412405,72.375 6.14773239,71.8633545 9.37483262,70.3253455 L9.71359178,70.1625588 C13.2449933,68.4524715 15.2325299,67.875 19.17,67.875 C22.9760645,67.875 24.9600555,68.4145997 28.2778362,69.995243 L28.6259421,70.162492 C32.0640909,71.8274551 33.9485581,72.375 37.755,72.375 C41.4349594,72.375 43.3188066,71.8633515 46.5463067,70.3253382 L46.8851078,70.162551 C50.4169274,68.4524683 52.4046936,67.875 56.342625,67.875 Z M56.342625,63.375 C60.1491354,63.375 62.1333558,63.9145967 65.451529,65.4952357 L65.7996761,65.6624842 C69.1236314,67.2719529 70.9955833,67.8372552 74.5554618,67.8731537 L74.929875,67.875 L74.929875,68.625 C71.1233646,68.625 69.1391442,68.0854033 65.820971,66.5047643 L65.4728239,66.3375158 C62.0342494,64.6725481 60.1495431,64.125 56.342625,64.125 C52.6624436,64.125 50.778497,64.6366698 47.5509058,66.1747255 L46.8638132,66.5048276 C43.5456917,68.0854091 41.561446,68.625 37.755,68.625 C33.9489355,68.625 31.9649445,68.0854003 28.6471638,66.504757 L28.2990579,66.337508 C24.8609091,64.6725449 22.9764419,64.125 19.17,64.125 C15.4902789,64.125 13.6065711,64.6366668 10.3793799,66.1747181 L9.69237039,66.5048203 C6.37464143,68.0854061 4.39062508,68.625 0.584625,68.625 C-3.22144748,68.625 -5.20548761,68.085384 -8.52317694,66.5047542 L-9.21015873,66.1746521 C-12.3258509,64.6896793 -14.1891584,64.1615062 -17.6256553,64.1268462 L-18,64.125 L-18,63.375 C-14.1941486,63.375 -12.2102087,63.9145949 -8.89261053,65.4951822 L-8.20562875,65.8252843 C-4.97857081,67.3633342 -3.09494262,67.875 0.584625,67.875 C4.26412405,67.875 6.14773239,67.3633545 9.37483262,65.8253455 L9.71359178,65.6625588 C13.2449933,63.9524715 15.2325299,63.375 19.17,63.375 C22.9760645,63.375 24.9600555,63.9145997 28.2778362,65.495243 L28.6259421,65.662492 C32.0640909,67.3274551 33.9485581,67.875 37.755,67.875 C41.4349594,67.875 43.3188066,67.3633515 46.5463067,65.8253382 L46.8851078,65.662551 C50.4169274,63.9524683 52.4046936,63.375 56.342625,63.375 Z M56.342625,58.70145 C60.1491354,58.70145 62.1333558,59.2410467 65.451529,60.8216857 L65.7996761,60.9889342 C69.1236314,62.5984029 70.9955833,63.1637052 74.5554618,63.1996037 L74.929875,63.20145 L74.929875,63.95145 C71.1233646,63.95145 69.1391442,63.4118533 65.820971,61.8312143 L65.4728239,61.6639658 C62.0342494,59.9989981 60.1495431,59.45145 56.342625,59.45145 C52.6624436,59.45145 50.778497,59.9631198 47.5509058,61.5011755 L46.8638132,61.8312776 C43.5456917,63.4118591 41.561446,63.95145 37.755,63.95145 C33.9489355,63.95145 31.9649445,63.4118503 28.6471638,61.831207 L28.2990579,61.663958 C24.8609091,59.9989949 22.9764419,59.45145 19.17,59.45145 C15.4902789,59.45145 13.6065711,59.9631168 10.3793799,61.5011681 L9.69237039,61.8312703 C6.37464143,63.4118561 4.39062508,63.95145 0.584625,63.95145 C-3.22144748,63.95145 -5.20548761,63.411834 -8.52317694,61.8312042 L-9.21015873,61.5011021 C-12.3258509,60.0161293 -14.1891584,59.4879562 -17.6256553,59.4532962 L-18,59.45145 L-18,58.70145 C-14.1941486,58.70145 -12.2102087,59.2410449 -8.89261053,60.8216322 L-8.20562875,61.1517343 C-4.97857081,62.6897842 -3.09494262,63.20145 0.584625,63.20145 C4.13724477,63.20145 6.01569294,62.724482 9.04565843,61.3072597 L10.0618421,60.8216934 C13.3796623,59.241065 15.3637789,58.70145 19.17,58.70145 C22.9760645,58.70145 24.9600555,59.2410497 28.2778362,60.821693 L28.6259421,60.988942 C32.0640909,62.6539051 33.9485581,63.20145 37.755,63.20145 C41.3080642,63.20145 43.1867504,62.7244792 46.2170917,61.3072529 L47.2333994,60.8216861 C50.551612,59.241062 52.535958,58.70145 56.342625,58.70145 Z M56.342625,54.3874875 C60.1491354,54.3874875 62.1333558,54.9270842 65.451529,56.5077232 L65.7996761,56.6749717 C69.1236314,58.2844404 70.9955833,58.8497427 74.5554618,58.8856412 L74.929875,58.8874875 L74.929875,59.6374875 C71.1233646,59.6374875 69.1391442,59.0978908 65.820971,57.5172518 L65.4728239,57.3500033 C62.0342494,55.6850356 60.1495431,55.1374875 56.342625,55.1374875 C52.6624436,55.1374875 50.778497,55.6491573 47.5509058,57.187213 L46.8638132,57.5173151 C43.5456917,59.0978966 41.561446,59.6374875 37.755,59.6374875 C33.9489355,59.6374875 31.9649445,59.0978878 28.6471638,57.5172445 L28.2990579,57.3499955 C24.8609091,55.6850324 22.9764419,55.1374875 19.17,55.1374875 C15.4902789,55.1374875 13.6065711,55.6491543 10.3793799,57.1872056 L9.69237039,57.5173078 C6.37464143,59.0978936 4.39062508,59.6374875 0.584625,59.6374875 C-3.22144748,59.6374875 -5.20548761,59.0978715 -8.52317694,57.5172417 L-9.21015873,57.1871396 C-12.3258509,55.7021668 -14.1891584,55.1739937 -17.6256553,55.1393337 L-18,55.1374875 L-18,54.3874875 C-14.1941486,54.3874875 -12.2102087,54.9270824 -8.89261053,56.5076697 L-8.20562875,56.8377718 C-4.97857081,58.3758217 -3.09494262,58.8874875 0.584625,58.8874875 C4.13724477,58.8874875 6.01569294,58.4105195 9.04565843,56.9932972 L10.0618421,56.5077309 C13.3796623,54.9271025 15.3637789,54.3874875 19.17,54.3874875 C22.9760645,54.3874875 24.9600555,54.9270872 28.2778362,56.5077305 L28.6259421,56.6749795 C32.0640909,58.3399426 33.9485581,58.8874875 37.755,58.8874875 C41.3080642,58.8874875 43.1867504,58.4105167 46.2170917,56.9932904 L47.2333994,56.5077236 C50.551612,54.9270995 52.535958,54.3874875 56.342625,54.3874875 Z M56.342625,50.073525 C60.1491354,50.073525 62.1333558,50.6131217 65.451529,52.1937607 L65.7996761,52.3610092 C69.1236314,53.9704779 70.9955833,54.5357802 74.5554618,54.5716787 L74.929875,54.573525 L74.929875,55.323525 C71.1233646,55.323525 69.1391442,54.7839283 65.820971,53.2032893 L65.4728239,53.0360408 C62.0342494,51.3710731 60.1495431,50.823525 56.342625,50.823525 C52.6624436,50.823525 50.778497,51.3351948 47.5509058,52.8732505 L46.8638132,53.2033526 C43.5456917,54.7839341 41.561446,55.323525 37.755,55.323525 C33.9489355,55.323525 31.9649445,54.7839253 28.6471638,53.203282 L28.2990579,53.036033 C24.8609091,51.3710699 22.9764419,50.823525 19.17,50.823525 C15.4902789,50.823525 13.6065711,51.3351918 10.3793799,52.8732431 L9.69237039,53.2033453 C6.37464143,54.7839311 4.39062508,55.323525 0.584625,55.323525 C-3.22144748,55.323525 -5.20548761,54.783909 -8.52317694,53.2032792 L-9.21015873,52.8731771 C-12.3258509,51.3882043 -14.1891584,50.8600312 -17.6256553,50.8253712 L-18,50.823525 L-18,50.073525 C-14.1941486,50.073525 -12.2102087,50.6131199 -8.89261053,52.1937072 L-8.20562875,52.5238093 C-4.97857081,54.0618592 -3.09494262,54.573525 0.584625,54.573525 C4.13724477,54.573525 6.01569294,54.096557 9.04565843,52.6793347 L10.0618421,52.1937684 C13.3796623,50.61314 15.3637789,50.073525 19.17,50.073525 C22.9760645,50.073525 24.9600555,50.6131247 28.2778362,52.193768 L28.6259421,52.361017 C32.0640909,54.0259801 33.9485581,54.573525 37.755,54.573525 C41.3080642,54.573525 43.1867504,54.0965542 46.2170917,52.6793279 L47.2333994,52.1937611 C50.551612,50.613137 52.535958,50.073525 56.342625,50.073525 Z M56.342625,45.7595625 C60.1491354,45.7595625 62.1333558,46.2991592 65.451529,47.8797982 L65.7996761,48.0470467 C69.1236314,49.6565154 70.9955833,50.2218177 74.5554618,50.2577162 L74.929875,50.2595625 L74.929875,51.0095625 C71.1233646,51.0095625 69.1391442,50.4699658 65.820971,48.8893268 L65.4728239,48.7220783 C62.0342494,47.0571106 60.1495431,46.5095625 56.342625,46.5095625 C52.6624436,46.5095625 50.778497,47.0212323 47.5509058,48.559288 L46.8638132,48.8893901 C43.5456917,50.4699716 41.561446,51.0095625 37.755,51.0095625 C33.9489355,51.0095625 31.9649445,50.4699628 28.6471638,48.8893195 L28.2990579,48.7220705 C24.8609091,47.0571074 22.9764419,46.5095625 19.17,46.5095625 C15.4902789,46.5095625 13.6065711,47.0212293 10.3793799,48.5592806 L9.69237039,48.8893828 C6.37464143,50.4699686 4.39062508,51.0095625 0.584625,51.0095625 C-3.22144748,51.0095625 -5.20548761,50.4699465 -8.52317694,48.8893167 L-9.21015873,48.5592146 C-12.3258509,47.0742418 -14.1891584,46.5460687 -17.6256553,46.5114087 L-18,46.5095625 L-18,45.7595625 C-14.1941486,45.7595625 -12.2102087,46.2991574 -8.89261053,47.8797447 L-8.20562875,48.2098468 C-4.97857081,49.7478967 -3.09494262,50.2595625 0.584625,50.2595625 C4.13724477,50.2595625 6.01569294,49.7825945 9.04565843,48.3653722 L10.0618421,47.8798059 C13.3796623,46.2991775 15.3637789,45.7595625 19.17,45.7595625 C22.9760645,45.7595625 24.9600555,46.2991622 28.2778362,47.8798055 L28.6259421,48.0470545 C32.0640909,49.7120176 33.9485581,50.2595625 37.755,50.2595625 C41.3080642,50.2595625 43.1867504,49.7825917 46.2170917,48.3653654 L47.2333994,47.8797986 C50.551612,46.2991745 52.535958,45.7595625 56.342625,45.7595625 Z M56.342625,41.445975 C60.1491354,41.445975 62.1333558,41.9855717 65.451529,43.5662107 L65.7996761,43.7334592 C69.1236314,45.3429279 70.9955833,45.9082302 74.5554618,45.9441287 L74.929875,45.945975 L74.929875,46.695975 C71.1233646,46.695975 69.1391442,46.1563783 65.820971,44.5757393 L65.4728239,44.4084908 C62.0342494,42.7435231 60.1495431,42.195975 56.342625,42.195975 C52.7893464,42.195975 50.9105601,42.6729656 47.8801303,44.0902315 L46.8638132,44.5758026 C43.5456917,46.1563841 41.561446,46.695975 37.755,46.695975 C33.9489355,46.695975 31.9649445,46.1563753 28.6471638,44.575732 L28.2990579,44.408483 C24.8609091,42.7435199 22.9764419,42.195975 19.17,42.195975 C15.6171659,42.195975 13.7386176,42.6729628 10.7085635,44.0902246 L9.69237039,44.5757953 C6.37464143,46.1563811 4.39062508,46.695975 0.584625,46.695975 C-3.22144748,46.695975 -5.20548761,46.156359 -8.52317694,44.5757292 L-9.21015873,44.2456271 C-12.3258509,42.7606543 -14.1891584,42.2324812 -17.6256553,42.1978212 L-18,42.195975 L-18,41.445975 C-14.1941486,41.445975 -12.2102087,41.9855699 -8.89261053,43.5661572 L-8.20562875,43.8962593 C-4.97857081,45.4343092 -3.09494262,45.945975 0.584625,45.945975 C4.26412405,45.945975 6.14773239,45.4343295 9.37483262,43.8963205 L10.0618421,43.5662184 C13.3796623,41.98559 15.3637789,41.445975 19.17,41.445975 C22.9760645,41.445975 24.9600555,41.9855747 28.2778362,43.566218 L28.6259421,43.733467 C32.0640909,45.3984301 33.9485581,45.945975 37.755,45.945975 C41.4349594,45.945975 43.3188066,45.4343265 46.5463067,43.8963132 L47.2333994,43.5662111 C50.551612,41.985587 52.535958,41.445975 56.342625,41.445975 Z M56.342625,37.1320125 C60.1491354,37.1320125 62.1333558,37.6716092 65.451529,39.2522482 L65.7996761,39.4194967 C69.1236314,41.0289654 70.9955833,41.5942677 74.5554618,41.6301662 L74.929875,41.6320125 L74.929875,42.3820125 C71.1233646,42.3820125 69.1391442,41.8424158 65.820971,40.2617768 L65.4728239,40.0945283 C62.0342494,38.4295606 60.1495431,37.8820125 56.342625,37.8820125 C52.6624436,37.8820125 50.778497,38.3936823 47.5509058,39.931738 L46.8638132,40.2618401 C43.5456917,41.8424216 41.561446,42.3820125 37.755,42.3820125 C33.9489355,42.3820125 31.9649445,41.8424128 28.6471638,40.2617695 L28.2990579,40.0945205 C24.8609091,38.4295574 22.9764419,37.8820125 19.17,37.8820125 C15.4902789,37.8820125 13.6065711,38.3936793 10.3793799,39.9317306 L9.69237039,40.2618328 C6.37464143,41.8424186 4.39062508,42.3820125 0.584625,42.3820125 C-3.22144748,42.3820125 -5.20548761,41.8423965 -8.52317694,40.2617667 L-9.21015873,39.9316646 C-12.3258509,38.4466918 -14.1891584,37.9185187 -17.6256553,37.8838587 L-18,37.8820125 L-18,37.1320125 C-14.1941486,37.1320125 -12.2102087,37.6716074 -8.89261053,39.2521947 L-8.20562875,39.5822968 C-4.97857081,41.1203467 -3.09494262,41.6320125 0.584625,41.6320125 C4.26412405,41.6320125 6.14773239,41.120367 9.37483262,39.582358 L10.0618421,39.2522559 C13.3796623,37.6716275 15.3637789,37.1320125 19.17,37.1320125 C22.9760645,37.1320125 24.9600555,37.6716122 28.2778362,39.2522555 L28.6259421,39.4195045 C32.0640909,41.0844676 33.9485581,41.6320125 37.755,41.6320125 C41.4349594,41.6320125 43.3188066,41.120364 46.5463067,39.5823507 L47.2333994,39.2522486 C50.551612,37.6716245 52.535958,37.1320125 56.342625,37.1320125 Z M56.342625,32.81805 C60.1491354,32.81805 62.1333558,33.3576467 65.451529,34.9382857 L65.7996761,35.1055342 C69.1236314,36.7150029 70.9955833,37.2803052 74.5554618,37.3162037 L74.929875,37.31805 L74.929875,38.06805 C71.1233646,38.06805 69.1391442,37.5284533 65.820971,35.9478143 L65.4728239,35.7805658 C62.0342494,34.1155981 60.1495431,33.56805 56.342625,33.56805 C52.6624436,33.56805 50.778497,34.0797198 47.5509058,35.6177755 L46.8638132,35.9478776 C43.5456917,37.5284591 41.561446,38.06805 37.755,38.06805 C33.9489355,38.06805 31.9649445,37.5284503 28.6471638,35.947807 L28.2990579,35.780558 C24.8609091,34.1155949 22.9764419,33.56805 19.17,33.56805 C15.4902789,33.56805 13.6065711,34.0797168 10.3793799,35.6177681 L9.69237039,35.9478703 C6.37464143,37.5284561 4.39062508,38.06805 0.584625,38.06805 C-3.22144748,38.06805 -5.20548761,37.528434 -8.52317694,35.9478042 L-9.21015873,35.6177021 C-12.3258509,34.1327293 -14.1891584,33.6045562 -17.6256553,33.5698962 L-18,33.56805 L-18,32.81805 C-14.1941486,32.81805 -12.2102087,33.3576449 -8.89261053,34.9382322 L-8.20562875,35.2683343 C-4.97857081,36.8063842 -3.09494262,37.31805 0.584625,37.31805 C4.26412405,37.31805 6.14773239,36.8064045 9.37483262,35.2683955 L10.0618421,34.9382934 C13.3796623,33.357665 15.3637789,32.81805 19.17,32.81805 C22.9760645,32.81805 24.9600555,33.3576497 28.2778362,34.938293 L28.6259421,35.105542 C32.0640909,36.7705051 33.9485581,37.31805 37.755,37.31805 C41.4349594,37.31805 43.3188066,36.8064015 46.5463067,35.2683882 L47.2333994,34.9382861 C50.551612,33.357662 52.535958,32.81805 56.342625,32.81805 Z M56.342625,28.50405 C60.1491354,28.50405 62.1333558,29.0436467 65.451529,30.6242857 L65.7996761,30.7915342 C69.1236314,32.4010029 70.9955833,32.9663052 74.5554618,33.0022037 L74.929875,33.00405 L74.929875,33.75405 C71.1233646,33.75405 69.1391442,33.2144533 65.820971,31.6338143 L65.4728239,31.4665658 C62.0342494,29.8015981 60.1495431,29.25405 56.342625,29.25405 C52.6624436,29.25405 50.778497,29.7657198 47.5509058,31.3037755 L46.8638132,31.6338776 C43.5456917,33.2144591 41.561446,33.75405 37.755,33.75405 C33.9489355,33.75405 31.9649445,33.2144503 28.6471638,31.633807 L28.2990579,31.466558 C24.8609091,29.8015949 22.9764419,29.25405 19.17,29.25405 C15.4902789,29.25405 13.6065711,29.7657168 10.3793799,31.3037681 L9.69237039,31.6338703 C6.37464143,33.2144561 4.39062508,33.75405 0.584625,33.75405 C-3.22144748,33.75405 -5.20548761,33.214434 -8.52317694,31.6338042 L-9.21015873,31.3037021 C-12.3258509,29.8187293 -14.1891584,29.2905562 -17.6256553,29.2558962 L-18,29.25405 L-18,28.50405 C-14.1941486,28.50405 -12.2102087,29.0436449 -8.89261053,30.6242322 L-8.20562875,30.9543343 C-4.97857081,32.4923842 -3.09494262,33.00405 0.584625,33.00405 C4.26412405,33.00405 6.14773239,32.4924045 9.37483262,30.9543955 L10.0618421,30.6242934 C13.3796623,29.043665 15.3637789,28.50405 19.17,28.50405 C22.9760645,28.50405 24.9600555,29.0436497 28.2778362,30.624293 L28.6259421,30.791542 C32.0640909,32.4565051 33.9485581,33.00405 37.755,33.00405 C41.4349594,33.00405 43.3188066,32.4924015 46.5463067,30.9543882 L47.2333994,30.6242861 C50.551612,29.043662 52.535958,28.50405 56.342625,28.50405 Z M56.342625,24.1900875 C60.1491354,24.1900875 62.1333558,24.7296842 65.451529,26.3103232 L65.7996761,26.4775717 C69.1236314,28.0870404 70.9955833,28.6523427 74.5554618,28.6882412 L74.929875,28.6900875 L74.929875,29.4400875 C71.1233646,29.4400875 69.1391442,28.9004908 65.820971,27.3198518 L65.4728239,27.1526033 C62.0342494,25.4876356 60.1495431,24.9400875 56.342625,24.9400875 C52.6624436,24.9400875 50.778497,25.4517573 47.5509058,26.989813 L46.8638132,27.3199151 C43.5456917,28.9004966 41.561446,29.4400875 37.755,29.4400875 C33.9489355,29.4400875 31.9649445,28.9004878 28.6471638,27.3198445 L28.2990579,27.1525955 C24.8609091,25.4876324 22.9764419,24.9400875 19.17,24.9400875 C15.4902789,24.9400875 13.6065711,25.4517543 10.3793799,26.9898056 L9.69237039,27.3199078 C6.37464143,28.9004936 4.39062508,29.4400875 0.584625,29.4400875 C-3.22144748,29.4400875 -5.20548761,28.9004715 -8.52317694,27.3198417 L-9.21015873,26.9897396 C-12.3258509,25.5047668 -14.1891584,24.9765937 -17.6256553,24.9419337 L-18,24.9400875 L-18,24.1900875 C-14.1941486,24.1900875 -12.2102087,24.7296824 -8.89261053,26.3102697 L-8.20562875,26.6403718 C-4.97857081,28.1784217 -3.09494262,28.6900875 0.584625,28.6900875 C4.26412405,28.6900875 6.14773239,28.178442 9.37483262,26.640433 L10.0618421,26.3103309 C13.3796623,24.7297025 15.3637789,24.1900875 19.17,24.1900875 C22.9760645,24.1900875 24.9600555,24.7296872 28.2778362,26.3103305 L28.6259421,26.4775795 C32.0640909,28.1425426 33.9485581,28.6900875 37.755,28.6900875 C41.4349594,28.6900875 43.3188066,28.178439 46.5463067,26.6404257 L47.2333994,26.3103236 C50.551612,24.7296995 52.535958,24.1900875 56.342625,24.1900875 Z M56.342625,19.8765 C60.1491354,19.8765 62.1333558,20.4160967 65.451529,21.9967357 L65.7996761,22.1639842 C69.1236314,23.7734529 70.9955833,24.3387552 74.5554618,24.3746537 L74.929875,24.3765 L74.929875,25.1265 C71.1233646,25.1265 69.1391442,24.5869033 65.820971,23.0062643 L65.4728239,22.8390158 C62.0342494,21.1740481 60.1495431,20.6265 56.342625,20.6265 C52.6624436,20.6265 50.778497,21.1381698 47.5509058,22.6762255 L46.8638132,23.0063276 C43.5456917,24.5869091 41.561446,25.1265 37.755,25.1265 C33.9489355,25.1265 31.9649445,24.5869003 28.6471638,23.006257 L28.2990579,22.839008 C24.8609091,21.1740449 22.9764419,20.6265 19.17,20.6265 C15.4902789,20.6265 13.6065711,21.1381668 10.3793799,22.6762181 L9.69237039,23.0063203 C6.37464143,24.5869061 4.39062508,25.1265 0.584625,25.1265 C-3.22144748,25.1265 -5.20548761,24.586884 -8.52317694,23.0062542 L-9.21015873,22.6761521 C-12.3258509,21.1911793 -14.1891584,20.6630062 -17.6256553,20.6283462 L-18,20.6265 L-18,19.8765 C-14.1941486,19.8765 -12.2102087,20.4160949 -8.89261053,21.9966822 L-8.20562875,22.3267843 C-4.97857081,23.8648342 -3.09494262,24.3765 0.584625,24.3765 C4.26412405,24.3765 6.14773239,23.8648545 9.37483262,22.3268455 L9.71359178,22.1640588 C13.2449933,20.4539715 15.2325299,19.8765 19.17,19.8765 C22.9760645,19.8765 24.9600555,20.4160997 28.2778362,21.996743 L28.6259421,22.163992 C32.0640909,23.8289551 33.9485581,24.3765 37.755,24.3765 C41.4349594,24.3765 43.3188066,23.8648515 46.5463067,22.3268382 L46.8851078,22.164051 C50.4169274,20.4539683 52.4046936,19.8765 56.342625,19.8765 Z M56.342625,15.5625375 C60.0178764,15.5625375 61.9943462,16.0655622 65.1128987,17.5229518 L65.7996761,17.8500217 C69.1236314,19.4594904 70.9955833,20.0247927 74.5554618,20.0606912 L74.929875,20.0625375 L74.929875,20.8125375 C71.1233646,20.8125375 69.1391442,20.2729408 65.820971,18.6923018 L65.4728239,18.5250533 C62.0342494,16.8600856 60.1495431,16.3125375 56.342625,16.3125375 C52.7893464,16.3125375 50.9105601,16.7895281 47.8801303,18.206794 L46.8638132,18.6923651 C43.5456917,20.2729466 41.561446,20.8125375 37.755,20.8125375 C33.9489355,20.8125375 31.9649445,20.2729378 28.6471638,18.6922945 L28.2990579,18.5250455 C24.8609091,16.8600824 22.9764419,16.3125375 19.17,16.3125375 C15.6171659,16.3125375 13.7386176,16.7895253 10.7085635,18.2067871 L9.69237039,18.6923578 C6.37464143,20.2729436 4.39062508,20.8125375 0.584625,20.8125375 C-3.22144748,20.8125375 -5.20548761,20.2729215 -8.52317694,18.6922917 L-8.87127294,18.5250442 C-12.1947595,16.9155752 -14.0664262,16.3502817 -17.6256553,16.3143837 L-18,16.3125375 L-18,15.5625375 C-14.1941486,15.5625375 -12.2102087,16.1021324 -8.89261053,17.6827197 L-8.54452394,17.8499627 C-5.10634073,19.514976 -3.22182427,20.0625375 0.584625,20.0625375 C4.26412405,20.0625375 6.14773239,19.550892 9.37483262,18.012883 L10.0618421,17.6827809 C13.3796623,16.1021525 15.3637789,15.5625375 19.17,15.5625375 C22.8448209,15.5625375 24.821062,16.065565 27.939246,17.5229587 L28.6259421,17.8500295 C32.0640909,19.5149926 33.9485581,20.0625375 37.755,20.0625375 C41.4349594,20.0625375 43.3188066,19.550889 46.5463067,18.0128757 L47.2333994,17.6827736 C50.551612,16.1021495 52.535958,15.5625375 56.342625,15.5625375 Z M56.342625,10.875 C60.1491354,10.875 62.1333558,11.4145967 65.451529,12.9952357 L65.7996761,13.1624842 C69.1236314,14.7719529 70.9955833,15.3372552 74.5554618,15.3731537 L74.929875,15.375 L74.929875,16.125 C71.1233646,16.125 69.1391442,15.5854033 65.820971,14.0047643 L65.4728239,13.8375158 C62.0342494,12.1725481 60.1495431,11.625 56.342625,11.625 C52.6624436,11.625 50.778497,12.1366698 47.5509058,13.6747255 L46.8638132,14.0048276 C43.5456917,15.5854091 41.561446,16.125 37.755,16.125 C33.9489355,16.125 31.9649445,15.5854003 28.6471638,14.004757 L28.2990579,13.837508 C24.8609091,12.1725449 22.9764419,11.625 19.17,11.625 C15.4902789,11.625 13.6065711,12.1366668 10.3793799,13.6747181 L9.69237039,14.0048203 C6.37464143,15.5854061 4.39062508,16.125 0.584625,16.125 C-3.22144748,16.125 -5.20548761,15.585384 -8.52317694,14.0047542 L-9.21015873,13.6746521 C-12.3258509,12.1896793 -14.1891584,11.6615062 -17.6256553,11.6268462 L-18,11.625 L-18,10.875 C-14.1941486,10.875 -12.2102087,11.4145949 -8.89261053,12.9951822 L-8.20562875,13.3252843 C-4.97857081,14.8633342 -3.09494262,15.375 0.584625,15.375 C4.26412405,15.375 6.14773239,14.8633545 9.37483262,13.3253455 L9.71359178,13.1625588 C13.2449933,11.4524715 15.2325299,10.875 19.17,10.875 C22.9760645,10.875 24.9600555,11.4145997 28.2778362,12.995243 L28.6259421,13.162492 C32.0640909,14.8274551 33.9485581,15.375 37.755,15.375 C41.4349594,15.375 43.3188066,14.8633515 46.5463067,13.3253382 L46.8851078,13.162551 C50.4169274,11.4524683 52.4046936,10.875 56.342625,10.875 Z M56.342625,6.375 C60.1491354,6.375 62.1333558,6.91459669 65.451529,8.49523569 L65.7996761,8.66248422 C69.1236314,10.2719529 70.9955833,10.8372552 74.5554618,10.8731537 L74.929875,10.875 L74.929875,11.625 C71.1233646,11.625 69.1391442,11.0854033 65.820971,9.50476431 L65.4728239,9.33751578 C62.0342494,7.67254813 60.1495431,7.125 56.342625,7.125 C52.6624436,7.125 50.778497,7.63666977 47.5509058,9.17472546 L46.8638132,9.50482757 C43.5456917,11.0854091 41.561446,11.625 37.755,11.625 C33.9489355,11.625 31.9649445,11.0854003 28.6471638,9.504757 L28.2990579,9.33750802 C24.8609091,7.67254493 22.9764419,7.125 19.17,7.125 C15.4902789,7.125 13.6065711,7.63666677 10.3793799,9.17471815 L9.69237039,9.50482026 C6.37464143,11.0854061 4.39062508,11.625 0.584625,11.625 C-3.22144748,11.625 -5.20548761,11.085384 -8.52317694,9.5047542 L-9.21015873,9.17465207 C-12.3258509,7.68967927 -14.1891584,7.16150624 -17.6256553,7.12684623 L-18,7.125 L-18,6.375 C-14.1941486,6.375 -12.2102087,6.91459486 -8.89261053,8.49518217 L-8.20562875,8.82528429 C-4.97857081,10.3633342 -3.09494262,10.875 0.584625,10.875 C4.26412405,10.875 6.14773239,10.3633545 9.37483262,8.82534549 L9.71359178,8.66255878 C13.2449933,6.95247151 15.2325299,6.375 19.17,6.375 C22.9760645,6.375 24.9600555,6.91459968 28.2778362,8.495243 L28.6259421,8.66249198 C32.0640909,10.3274551 33.9485581,10.875 37.755,10.875 C41.4349594,10.875 43.3188066,10.3633515 46.5463067,8.82533817 L46.8851078,8.66255101 C50.4169274,6.9524683 52.4046936,6.375 56.342625,6.375 Z M56.342625,1.875 C60.1491354,1.875 62.1333558,2.41459669 65.451529,3.99523569 L65.7996761,4.16248422 C69.1236314,5.77195294 70.9955833,6.33725521 74.5554618,6.37315373 L74.929875,6.375 L74.929875,7.125 C71.1233646,7.125 69.1391442,6.58540331 65.820971,5.00476431 L65.4728239,4.83751578 C62.0342494,3.17254813 60.1495431,2.625 56.342625,2.625 C52.6624436,2.625 50.778497,3.13666977 47.5509058,4.67472546 L46.8638132,5.00482757 C43.5456917,6.58540913 41.561446,7.125 37.755,7.125 C33.9489355,7.125 31.9649445,6.58540032 28.6471638,5.004757 L28.2990579,4.83750802 C24.8609091,3.17254493 22.9764419,2.625 19.17,2.625 C15.4902789,2.625 13.6065711,3.13666677 10.3793799,4.67471815 L9.69237039,5.00482026 C6.37464143,6.58540614 4.39062508,7.125 0.584625,7.125 C-3.22144748,7.125 -5.20548761,6.58538396 -8.52317694,5.0047542 L-9.21015873,4.67465207 C-12.3258509,3.18967927 -14.1891584,2.66150624 -17.6256553,2.62684623 L-18,2.625 L-18,1.875 C-14.1941486,1.875 -12.2102087,2.41459486 -8.89261053,3.99518217 L-8.20562875,4.32528429 C-4.97857081,5.86333422 -3.09494262,6.375 0.584625,6.375 C4.26412405,6.375 6.14773239,5.86335447 9.37483262,4.32534549 L9.71359178,4.16255878 C13.2449933,2.45247151 15.2325299,1.875 19.17,1.875 C22.9760645,1.875 24.9600555,2.41459968 28.2778362,3.995243 L28.6259421,4.16249198 C32.0640909,5.82745507 33.9485581,6.375 37.755,6.375 C41.4349594,6.375 43.3188066,5.86335148 46.5463067,4.32533817 L46.8851078,4.16255101 C50.4169274,2.4524683 52.4046936,1.875 56.342625,1.875 Z M56.342625,-2.625 C60.1491354,-2.625 62.1333558,-2.08540331 65.451529,-0.504764312 L65.7996761,-0.337515785 C69.1236314,1.27195294 70.9955833,1.83725521 74.5554618,1.87315373 L74.929875,1.875 L74.929875,2.625 C71.1233646,2.625 69.1391442,2.08540331 65.820971,0.504764312 L65.4728239,0.337515785 C62.0342494,-1.32745187 60.1495431,-1.875 56.342625,-1.875 C52.6624436,-1.875 50.778497,-1.36333023 47.5509058,0.174725459 L46.8638132,0.504827567 C43.5456917,2.08540913 41.561446,2.625 37.755,2.625 C33.9489355,2.625 31.9649445,2.08540032 28.6471638,0.504757002 L28.2990579,0.337508024 C24.8609091,-1.32745507 22.9764419,-1.875 19.17,-1.875 C15.4902789,-1.875 13.6065711,-1.36333323 10.3793799,0.174718149 L9.69237039,0.504820265 C6.37464143,2.08540614 4.39062508,2.625 0.584625,2.625 C-3.22144748,2.625 -5.20548761,2.08538396 -8.52317694,0.504754197 L-9.21015873,0.174652073 C-12.3258509,-1.31032073 -14.1891584,-1.83849376 -17.6256553,-1.87315377 L-18,-1.875 L-18,-2.625 C-14.1941486,-2.625 -12.2102087,-2.08540514 -8.89261053,-0.50481783 L-8.20562875,-0.174715712 C-4.97857081,1.36333422 -3.09494262,1.875 0.584625,1.875 C4.26412405,1.875 6.14773239,1.36335447 9.37483262,-0.174654512 L9.71359178,-0.33744122 C13.2449933,-2.04752849 15.2325299,-2.625 19.17,-2.625 C22.9760645,-2.625 24.9600555,-2.08540032 28.2778362,-0.504757002 L28.6259421,-0.337508024 C32.0640909,1.32745507 33.9485581,1.875 37.755,1.875 C41.4349594,1.875 43.3188066,1.36335148 46.5463067,-0.174661829 L46.8851078,-0.337448988 C50.4169274,-2.0475317 52.4046936,-2.625 56.342625,-2.625 Z" id="Combined-Shape" fill="#FF8F59" mask="url(#mask-2)"></path>
            </g>
        </g>
    </g>
</svg>