<?xml version="1.0" encoding="UTF-8"?>
<svg width="60px" height="60px" viewBox="0 0 60 60" version="1.1" xmlns="http://www.w3.org/2000/svg" xmlns:xlink="http://www.w3.org/1999/xlink">
    <title>Texture Top</title>
    <defs>
        <rect id="path-1" x="0" y="0" width="60" height="60" rx="9"></rect>
    </defs>
    <g id="Symbols" stroke="none" stroke-width="1" fill="none" fill-rule="evenodd">
        <g id="Ilustrations-/-Contact" transform="translate(-221.000000, -49.000000)">
            <g id="Step-#2" transform="translate(21.000000, 24.000000)">
                <g id="Texture-Top" transform="translate(200.000000, 25.000000)">
                    <mask id="mask-2" fill="white">
                        <use xlink:href="#path-1"></use>
                    </mask>
                    <use id="Mask" fill-opacity="0.101671766" fill="#E5F9F6" xlink:href="#path-1"></use>
                    <path d="M59.25,64.5 C59.6642136,64.5 60,64.8357864 60,65.25 C60,65.6642136 59.6642136,66 59.25,66 C58.8357864,66 58.5,65.6642136 58.5,65.25 C58.5,64.8357864 58.8357864,64.5 59.25,64.5 Z M50.25,64.5 C50.6642136,64.5 51,64.8357864 51,65.25 C51,65.6642136 50.6642136,66 50.25,66 C49.8357864,66 49.5,65.6642136 49.5,65.25 C49.5,64.8357864 49.8357864,64.5 50.25,64.5 Z M54.75,64.5 C55.1642136,64.5 55.5,64.8357864 55.5,65.25 C55.5,65.6642136 55.1642136,66 54.75,66 C54.3357864,66 54,65.6642136 54,65.25 C54,64.8357864 54.3357864,64.5 54.75,64.5 Z M45.75,64.5 C46.1642136,64.5 46.5,64.8357864 46.5,65.25 C46.5,65.6642136 46.1642136,66 45.75,66 C45.3357864,66 45,65.6642136 45,65.25 C45,64.8357864 45.3357864,64.5 45.75,64.5 Z M23.25,64.5 C23.6642136,64.5 24,64.8357864 24,65.25 C24,65.6642136 23.6642136,66 23.25,66 C22.8357864,66 22.5,65.6642136 22.5,65.25 C22.5,64.8357864 22.8357864,64.5 23.25,64.5 Z M14.25,64.5 C14.6642136,64.5 15,64.8357864 15,65.25 C15,65.6642136 14.6642136,66 14.25,66 C13.8357864,66 13.5,65.6642136 13.5,65.25 C13.5,64.8357864 13.8357864,64.5 14.25,64.5 Z M18.75,64.5 C19.1642136,64.5 19.5,64.8357864 19.5,65.25 C19.5,65.6642136 19.1642136,66 18.75,66 C18.3357864,66 18,65.6642136 18,65.25 C18,64.8357864 18.3357864,64.5 18.75,64.5 Z M-12.75,64.5 C-12.3357864,64.5 -12,64.8357864 -12,65.25 C-12,65.6642136 -12.3357864,66 -12.75,66 C-13.1642136,66 -13.5,65.6642136 -13.5,65.25 C-13.5,64.8357864 -13.1642136,64.5 -12.75,64.5 Z M-21.75,64.5 C-21.3357864,64.5 -21,64.8357864 -21,65.25 C-21,65.6642136 -21.3357864,66 -21.75,66 C-22.1642136,66 -22.5,65.6642136 -22.5,65.25 C-22.5,64.8357864 -22.1642136,64.5 -21.75,64.5 Z M-17.25,64.5 C-16.8357864,64.5 -16.5,64.8357864 -16.5,65.25 C-16.5,65.6642136 -16.8357864,66 -17.25,66 C-17.6642136,66 -18,65.6642136 -18,65.25 C-18,64.8357864 -17.6642136,64.5 -17.25,64.5 Z M-26.25,64.5 C-25.8357864,64.5 -25.5,64.8357864 -25.5,65.25 C-25.5,65.6642136 -25.8357864,66 -26.25,66 C-26.6642136,66 -27,65.6642136 -27,65.25 C-27,64.8357864 -26.6642136,64.5 -26.25,64.5 Z M36.75,64.5 C37.1642136,64.5 37.5,64.8357864 37.5,65.25 C37.5,65.6642136 37.1642136,66 36.75,66 C36.3357864,66 36,65.6642136 36,65.25 C36,64.8357864 36.3357864,64.5 36.75,64.5 Z M32.25,64.5 C32.6642136,64.5 33,64.8357864 33,65.25 C33,65.6642136 32.6642136,66 32.25,66 C31.8357864,66 31.5,65.6642136 31.5,65.25 C31.5,64.8357864 31.8357864,64.5 32.25,64.5 Z M41.25,64.5 C41.6642136,64.5 42,64.8357864 42,65.25 C42,65.6642136 41.6642136,66 41.25,66 C40.8357864,66 40.5,65.6642136 40.5,65.25 C40.5,64.8357864 40.8357864,64.5 41.25,64.5 Z M27.75,64.5 C28.1642136,64.5 28.5,64.8357864 28.5,65.25 C28.5,65.6642136 28.1642136,66 27.75,66 C27.3357864,66 27,65.6642136 27,65.25 C27,64.8357864 27.3357864,64.5 27.75,64.5 Z M0.75,64.5 C1.16421356,64.5 1.5,64.8357864 1.5,65.25 C1.5,65.6642136 1.16421356,66 0.75,66 C0.335786438,66 0,65.6642136 0,65.25 C0,64.8357864 0.335786438,64.5 0.75,64.5 Z M-3.75,64.5 C-3.33578644,64.5 -3,64.8357864 -3,65.25 C-3,65.6642136 -3.33578644,66 -3.75,66 C-4.16421356,66 -4.5,65.6642136 -4.5,65.25 C-4.5,64.8357864 -4.16421356,64.5 -3.75,64.5 Z M5.25,64.5 C5.66421356,64.5 6,64.8357864 6,65.25 C6,65.6642136 5.66421356,66 5.25,66 C4.83578644,66 4.5,65.6642136 4.5,65.25 C4.5,64.8357864 4.83578644,64.5 5.25,64.5 Z M-8.25,64.5 C-7.83578644,64.5 -7.5,64.8357864 -7.5,65.25 C-7.5,65.6642136 -7.83578644,66 -8.25,66 C-8.66421356,66 -9,65.6642136 -9,65.25 C-9,64.8357864 -8.66421356,64.5 -8.25,64.5 Z M9.75,64.5 C10.1642136,64.5 10.5,64.8357864 10.5,65.25 C10.5,65.6642136 10.1642136,66 9.75,66 C9.33578644,66 9,65.6642136 9,65.25 C9,64.8357864 9.33578644,64.5 9.75,64.5 Z M-17.25,60 C-16.8357864,60 -16.5,60.3357864 -16.5,60.75 C-16.5,61.1642136 -16.8357864,61.5 -17.25,61.5 C-17.6642136,61.5 -18,61.1642136 -18,60.75 C-18,60.3357864 -17.6642136,60 -17.25,60 Z M59.25,60 C59.6642136,60 60,60.3357864 60,60.75 C60,61.1642136 59.6642136,61.5 59.25,61.5 C58.8357864,61.5 58.5,61.1642136 58.5,60.75 C58.5,60.3357864 58.8357864,60 59.25,60 Z M50.25,60 C50.6642136,60 51,60.3357864 51,60.75 C51,61.1642136 50.6642136,61.5 50.25,61.5 C49.8357864,61.5 49.5,61.1642136 49.5,60.75 C49.5,60.3357864 49.8357864,60 50.25,60 Z M54.75,60 C55.1642136,60 55.5,60.3357864 55.5,60.75 C55.5,61.1642136 55.1642136,61.5 54.75,61.5 C54.3357864,61.5 54,61.1642136 54,60.75 C54,60.3357864 54.3357864,60 54.75,60 Z M45.75,60 C46.1642136,60 46.5,60.3357864 46.5,60.75 C46.5,61.1642136 46.1642136,61.5 45.75,61.5 C45.3357864,61.5 45,61.1642136 45,60.75 C45,60.3357864 45.3357864,60 45.75,60 Z M9.75,60 C10.1642136,60 10.5,60.3357864 10.5,60.75 C10.5,61.1642136 10.1642136,61.5 9.75,61.5 C9.33578644,61.5 9,61.1642136 9,60.75 C9,60.3357864 9.33578644,60 9.75,60 Z M41.25,60 C41.6642136,60 42,60.3357864 42,60.75 C42,61.1642136 41.6642136,61.5 41.25,61.5 C40.8357864,61.5 40.5,61.1642136 40.5,60.75 C40.5,60.3357864 40.8357864,60 41.25,60 Z M32.25,60 C32.6642136,60 33,60.3357864 33,60.75 C33,61.1642136 32.6642136,61.5 32.25,61.5 C31.8357864,61.5 31.5,61.1642136 31.5,60.75 C31.5,60.3357864 31.8357864,60 32.25,60 Z M36.75,60 C37.1642136,60 37.5,60.3357864 37.5,60.75 C37.5,61.1642136 37.1642136,61.5 36.75,61.5 C36.3357864,61.5 36,61.1642136 36,60.75 C36,60.3357864 36.3357864,60 36.75,60 Z M27.75,60 C28.1642136,60 28.5,60.3357864 28.5,60.75 C28.5,61.1642136 28.1642136,61.5 27.75,61.5 C27.3357864,61.5 27,61.1642136 27,60.75 C27,60.3357864 27.3357864,60 27.75,60 Z M18.75,60 C19.1642136,60 19.5,60.3357864 19.5,60.75 C19.5,61.1642136 19.1642136,61.5 18.75,61.5 C18.3357864,61.5 18,61.1642136 18,60.75 C18,60.3357864 18.3357864,60 18.75,60 Z M14.25,60 C14.6642136,60 15,60.3357864 15,60.75 C15,61.1642136 14.6642136,61.5 14.25,61.5 C13.8357864,61.5 13.5,61.1642136 13.5,60.75 C13.5,60.3357864 13.8357864,60 14.25,60 Z M23.25,60 C23.6642136,60 24,60.3357864 24,60.75 C24,61.1642136 23.6642136,61.5 23.25,61.5 C22.8357864,61.5 22.5,61.1642136 22.5,60.75 C22.5,60.3357864 22.8357864,60 23.25,60 Z M-26.25,60 C-25.8357864,60 -25.5,60.3357864 -25.5,60.75 C-25.5,61.1642136 -25.8357864,61.5 -26.25,61.5 C-26.6642136,61.5 -27,61.1642136 -27,60.75 C-27,60.3357864 -26.6642136,60 -26.25,60 Z M-12.75,60 C-12.3357864,60 -12,60.3357864 -12,60.75 C-12,61.1642136 -12.3357864,61.5 -12.75,61.5 C-13.1642136,61.5 -13.5,61.1642136 -13.5,60.75 C-13.5,60.3357864 -13.1642136,60 -12.75,60 Z M-21.75,60 C-21.3357864,60 -21,60.3357864 -21,60.75 C-21,61.1642136 -21.3357864,61.5 -21.75,61.5 C-22.1642136,61.5 -22.5,61.1642136 -22.5,60.75 C-22.5,60.3357864 -22.1642136,60 -21.75,60 Z M-8.25,60 C-7.83578644,60 -7.5,60.3357864 -7.5,60.75 C-7.5,61.1642136 -7.83578644,61.5 -8.25,61.5 C-8.66421356,61.5 -9,61.1642136 -9,60.75 C-9,60.3357864 -8.66421356,60 -8.25,60 Z M5.25,60 C5.66421356,60 6,60.3357864 6,60.75 C6,61.1642136 5.66421356,61.5 5.25,61.5 C4.83578644,61.5 4.5,61.1642136 4.5,60.75 C4.5,60.3357864 4.83578644,60 5.25,60 Z M-3.75,60 C-3.33578644,60 -3,60.3357864 -3,60.75 C-3,61.1642136 -3.33578644,61.5 -3.75,61.5 C-4.16421356,61.5 -4.5,61.1642136 -4.5,60.75 C-4.5,60.3357864 -4.16421356,60 -3.75,60 Z M0.75,60 C1.16421356,60 1.5,60.3357864 1.5,60.75 C1.5,61.1642136 1.16421356,61.5 0.75,61.5 C0.335786438,61.5 0,61.1642136 0,60.75 C0,60.3357864 0.335786438,60 0.75,60 Z M32.25,55.5 C32.6642136,55.5 33,55.8357864 33,56.25 C33,56.6642136 32.6642136,57 32.25,57 C31.8357864,57 31.5,56.6642136 31.5,56.25 C31.5,55.8357864 31.8357864,55.5 32.25,55.5 Z M36.75,55.5 C37.1642136,55.5 37.5,55.8357864 37.5,56.25 C37.5,56.6642136 37.1642136,57 36.75,57 C36.3357864,57 36,56.6642136 36,56.25 C36,55.8357864 36.3357864,55.5 36.75,55.5 Z M27.75,55.5 C28.1642136,55.5 28.5,55.8357864 28.5,56.25 C28.5,56.6642136 28.1642136,57 27.75,57 C27.3357864,57 27,56.6642136 27,56.25 C27,55.8357864 27.3357864,55.5 27.75,55.5 Z M18.75,55.5 C19.1642136,55.5 19.5,55.8357864 19.5,56.25 C19.5,56.6642136 19.1642136,57 18.75,57 C18.3357864,57 18,56.6642136 18,56.25 C18,55.8357864 18.3357864,55.5 18.75,55.5 Z M5.25,55.5 C5.66421356,55.5 6,55.8357864 6,56.25 C6,56.6642136 5.66421356,57 5.25,57 C4.83578644,57 4.5,56.6642136 4.5,56.25 C4.5,55.8357864 4.83578644,55.5 5.25,55.5 Z M-3.75,55.5 C-3.33578644,55.5 -3,55.8357864 -3,56.25 C-3,56.6642136 -3.33578644,57 -3.75,57 C-4.16421356,57 -4.5,56.6642136 -4.5,56.25 C-4.5,55.8357864 -4.16421356,55.5 -3.75,55.5 Z M0.75,55.5 C1.16421356,55.5 1.5,55.8357864 1.5,56.25 C1.5,56.6642136 1.16421356,57 0.75,57 C0.335786438,57 0,56.6642136 0,56.25 C0,55.8357864 0.335786438,55.5 0.75,55.5 Z M-8.25,55.5 C-7.83578644,55.5 -7.5,55.8357864 -7.5,56.25 C-7.5,56.6642136 -7.83578644,57 -8.25,57 C-8.66421356,57 -9,56.6642136 -9,56.25 C-9,55.8357864 -8.66421356,55.5 -8.25,55.5 Z M41.25,55.5 C41.6642136,55.5 42,55.8357864 42,56.25 C42,56.6642136 41.6642136,57 41.25,57 C40.8357864,57 40.5,56.6642136 40.5,56.25 C40.5,55.8357864 40.8357864,55.5 41.25,55.5 Z M-26.25,55.5 C-25.8357864,55.5 -25.5,55.8357864 -25.5,56.25 C-25.5,56.6642136 -25.8357864,57 -26.25,57 C-26.6642136,57 -27,56.6642136 -27,56.25 C-27,55.8357864 -26.6642136,55.5 -26.25,55.5 Z M-17.25,55.5 C-16.8357864,55.5 -16.5,55.8357864 -16.5,56.25 C-16.5,56.6642136 -16.8357864,57 -17.25,57 C-17.6642136,57 -18,56.6642136 -18,56.25 C-18,55.8357864 -17.6642136,55.5 -17.25,55.5 Z M-21.75,55.5 C-21.3357864,55.5 -21,55.8357864 -21,56.25 C-21,56.6642136 -21.3357864,57 -21.75,57 C-22.1642136,57 -22.5,56.6642136 -22.5,56.25 C-22.5,55.8357864 -22.1642136,55.5 -21.75,55.5 Z M45.75,55.5 C46.1642136,55.5 46.5,55.8357864 46.5,56.25 C46.5,56.6642136 46.1642136,57 45.75,57 C45.3357864,57 45,56.6642136 45,56.25 C45,55.8357864 45.3357864,55.5 45.75,55.5 Z M54.75,55.5 C55.1642136,55.5 55.5,55.8357864 55.5,56.25 C55.5,56.6642136 55.1642136,57 54.75,57 C54.3357864,57 54,56.6642136 54,56.25 C54,55.8357864 54.3357864,55.5 54.75,55.5 Z M50.25,55.5 C50.6642136,55.5 51,55.8357864 51,56.25 C51,56.6642136 50.6642136,57 50.25,57 C49.8357864,57 49.5,56.6642136 49.5,56.25 C49.5,55.8357864 49.8357864,55.5 50.25,55.5 Z M59.25,55.5 C59.6642136,55.5 60,55.8357864 60,56.25 C60,56.6642136 59.6642136,57 59.25,57 C58.8357864,57 58.5,56.6642136 58.5,56.25 C58.5,55.8357864 58.8357864,55.5 59.25,55.5 Z M-12.75,55.5 C-12.3357864,55.5 -12,55.8357864 -12,56.25 C-12,56.6642136 -12.3357864,57 -12.75,57 C-13.1642136,57 -13.5,56.6642136 -13.5,56.25 C-13.5,55.8357864 -13.1642136,55.5 -12.75,55.5 Z M9.75,55.5 C10.1642136,55.5 10.5,55.8357864 10.5,56.25 C10.5,56.6642136 10.1642136,57 9.75,57 C9.33578644,57 9,56.6642136 9,56.25 C9,55.8357864 9.33578644,55.5 9.75,55.5 Z M14.25,55.5 C14.6642136,55.5 15,55.8357864 15,56.25 C15,56.6642136 14.6642136,57 14.25,57 C13.8357864,57 13.5,56.6642136 13.5,56.25 C13.5,55.8357864 13.8357864,55.5 14.25,55.5 Z M23.25,55.5 C23.6642136,55.5 24,55.8357864 24,56.25 C24,56.6642136 23.6642136,57 23.25,57 C22.8357864,57 22.5,56.6642136 22.5,56.25 C22.5,55.8357864 22.8357864,55.5 23.25,55.5 Z M23.25,51 C23.6642136,51 24,51.3357864 24,51.75 C24,52.1642136 23.6642136,52.5 23.25,52.5 C22.8357864,52.5 22.5,52.1642136 22.5,51.75 C22.5,51.3357864 22.8357864,51 23.25,51 Z M-26.25,51 C-25.8357864,51 -25.5,51.3357864 -25.5,51.75 C-25.5,52.1642136 -25.8357864,52.5 -26.25,52.5 C-26.6642136,52.5 -27,52.1642136 -27,51.75 C-27,51.3357864 -26.6642136,51 -26.25,51 Z M-17.25,51 C-16.8357864,51 -16.5,51.3357864 -16.5,51.75 C-16.5,52.1642136 -16.8357864,52.5 -17.25,52.5 C-17.6642136,52.5 -18,52.1642136 -18,51.75 C-18,51.3357864 -17.6642136,51 -17.25,51 Z M-21.75,51 C-21.3357864,51 -21,51.3357864 -21,51.75 C-21,52.1642136 -21.3357864,52.5 -21.75,52.5 C-22.1642136,52.5 -22.5,52.1642136 -22.5,51.75 C-22.5,51.3357864 -22.1642136,51 -21.75,51 Z M9.75,51 C10.1642136,51 10.5,51.3357864 10.5,51.75 C10.5,52.1642136 10.1642136,52.5 9.75,52.5 C9.33578644,52.5 9,52.1642136 9,51.75 C9,51.3357864 9.33578644,51 9.75,51 Z M18.75,51 C19.1642136,51 19.5,51.3357864 19.5,51.75 C19.5,52.1642136 19.1642136,52.5 18.75,52.5 C18.3357864,52.5 18,52.1642136 18,51.75 C18,51.3357864 18.3357864,51 18.75,51 Z M14.25,51 C14.6642136,51 15,51.3357864 15,51.75 C15,52.1642136 14.6642136,52.5 14.25,52.5 C13.8357864,52.5 13.5,52.1642136 13.5,51.75 C13.5,51.3357864 13.8357864,51 14.25,51 Z M-12.75,51 C-12.3357864,51 -12,51.3357864 -12,51.75 C-12,52.1642136 -12.3357864,52.5 -12.75,52.5 C-13.1642136,52.5 -13.5,52.1642136 -13.5,51.75 C-13.5,51.3357864 -13.1642136,51 -12.75,51 Z M27.75,51 C28.1642136,51 28.5,51.3357864 28.5,51.75 C28.5,52.1642136 28.1642136,52.5 27.75,52.5 C27.3357864,52.5 27,52.1642136 27,51.75 C27,51.3357864 27.3357864,51 27.75,51 Z M36.75,51 C37.1642136,51 37.5,51.3357864 37.5,51.75 C37.5,52.1642136 37.1642136,52.5 36.75,52.5 C36.3357864,52.5 36,52.1642136 36,51.75 C36,51.3357864 36.3357864,51 36.75,51 Z M32.25,51 C32.6642136,51 33,51.3357864 33,51.75 C33,52.1642136 32.6642136,52.5 32.25,52.5 C31.8357864,52.5 31.5,52.1642136 31.5,51.75 C31.5,51.3357864 31.8357864,51 32.25,51 Z M41.25,51 C41.6642136,51 42,51.3357864 42,51.75 C42,52.1642136 41.6642136,52.5 41.25,52.5 C40.8357864,52.5 40.5,52.1642136 40.5,51.75 C40.5,51.3357864 40.8357864,51 41.25,51 Z M59.25,51 C59.6642136,51 60,51.3357864 60,51.75 C60,52.1642136 59.6642136,52.5 59.25,52.5 C58.8357864,52.5 58.5,52.1642136 58.5,51.75 C58.5,51.3357864 58.8357864,51 59.25,51 Z M50.25,51 C50.6642136,51 51,51.3357864 51,51.75 C51,52.1642136 50.6642136,52.5 50.25,52.5 C49.8357864,52.5 49.5,52.1642136 49.5,51.75 C49.5,51.3357864 49.8357864,51 50.25,51 Z M54.75,51 C55.1642136,51 55.5,51.3357864 55.5,51.75 C55.5,52.1642136 55.1642136,52.5 54.75,52.5 C54.3357864,52.5 54,52.1642136 54,51.75 C54,51.3357864 54.3357864,51 54.75,51 Z M45.75,51 C46.1642136,51 46.5,51.3357864 46.5,51.75 C46.5,52.1642136 46.1642136,52.5 45.75,52.5 C45.3357864,52.5 45,52.1642136 45,51.75 C45,51.3357864 45.3357864,51 45.75,51 Z M-8.25,51 C-7.83578644,51 -7.5,51.3357864 -7.5,51.75 C-7.5,52.1642136 -7.83578644,52.5 -8.25,52.5 C-8.66421356,52.5 -9,52.1642136 -9,51.75 C-9,51.3357864 -8.66421356,51 -8.25,51 Z M0.75,51 C1.16421356,51 1.5,51.3357864 1.5,51.75 C1.5,52.1642136 1.16421356,52.5 0.75,52.5 C0.335786438,52.5 0,52.1642136 0,51.75 C0,51.3357864 0.335786438,51 0.75,51 Z M-3.75,51 C-3.33578644,51 -3,51.3357864 -3,51.75 C-3,52.1642136 -3.33578644,52.5 -3.75,52.5 C-4.16421356,52.5 -4.5,52.1642136 -4.5,51.75 C-4.5,51.3357864 -4.16421356,51 -3.75,51 Z M5.25,51 C5.66421356,51 6,51.3357864 6,51.75 C6,52.1642136 5.66421356,52.5 5.25,52.5 C4.83578644,52.5 4.5,52.1642136 4.5,51.75 C4.5,51.3357864 4.83578644,51 5.25,51 Z M-26.25,46.5 C-25.8357864,46.5 -25.5,46.8357864 -25.5,47.25 C-25.5,47.6642136 -25.8357864,48 -26.25,48 C-26.6642136,48 -27,47.6642136 -27,47.25 C-27,46.8357864 -26.6642136,46.5 -26.25,46.5 Z M27.75,46.5 C28.1642136,46.5 28.5,46.8357864 28.5,47.25 C28.5,47.6642136 28.1642136,48 27.75,48 C27.3357864,48 27,47.6642136 27,47.25 C27,46.8357864 27.3357864,46.5 27.75,46.5 Z M41.25,46.5 C41.6642136,46.5 42,46.8357864 42,47.25 C42,47.6642136 41.6642136,48 41.25,48 C40.8357864,48 40.5,47.6642136 40.5,47.25 C40.5,46.8357864 40.8357864,46.5 41.25,46.5 Z M32.25,46.5 C32.6642136,46.5 33,46.8357864 33,47.25 C33,47.6642136 32.6642136,48 32.25,48 C31.8357864,48 31.5,47.6642136 31.5,47.25 C31.5,46.8357864 31.8357864,46.5 32.25,46.5 Z M36.75,46.5 C37.1642136,46.5 37.5,46.8357864 37.5,47.25 C37.5,47.6642136 37.1642136,48 36.75,48 C36.3357864,48 36,47.6642136 36,47.25 C36,46.8357864 36.3357864,46.5 36.75,46.5 Z M59.25,46.5 C59.6642136,46.5 60,46.8357864 60,47.25 C60,47.6642136 59.6642136,48 59.25,48 C58.8357864,48 58.5,47.6642136 58.5,47.25 C58.5,46.8357864 58.8357864,46.5 59.25,46.5 Z M45.75,46.5 C46.1642136,46.5 46.5,46.8357864 46.5,47.25 C46.5,47.6642136 46.1642136,48 45.75,48 C45.3357864,48 45,47.6642136 45,47.25 C45,46.8357864 45.3357864,46.5 45.75,46.5 Z M54.75,46.5 C55.1642136,46.5 55.5,46.8357864 55.5,47.25 C55.5,47.6642136 55.1642136,48 54.75,48 C54.3357864,48 54,47.6642136 54,47.25 C54,46.8357864 54.3357864,46.5 54.75,46.5 Z M9.75,46.5 C10.1642136,46.5 10.5,46.8357864 10.5,47.25 C10.5,47.6642136 10.1642136,48 9.75,48 C9.33578644,48 9,47.6642136 9,47.25 C9,46.8357864 9.33578644,46.5 9.75,46.5 Z M23.25,46.5 C23.6642136,46.5 24,46.8357864 24,47.25 C24,47.6642136 23.6642136,48 23.25,48 C22.8357864,48 22.5,47.6642136 22.5,47.25 C22.5,46.8357864 22.8357864,46.5 23.25,46.5 Z M50.25,46.5 C50.6642136,46.5 51,46.8357864 51,47.25 C51,47.6642136 50.6642136,48 50.25,48 C49.8357864,48 49.5,47.6642136 49.5,47.25 C49.5,46.8357864 49.8357864,46.5 50.25,46.5 Z M14.25,46.5 C14.6642136,46.5 15,46.8357864 15,47.25 C15,47.6642136 14.6642136,48 14.25,48 C13.8357864,48 13.5,47.6642136 13.5,47.25 C13.5,46.8357864 13.8357864,46.5 14.25,46.5 Z M-8.25,46.5 C-7.83578644,46.5 -7.5,46.8357864 -7.5,47.25 C-7.5,47.6642136 -7.83578644,48 -8.25,48 C-8.66421356,48 -9,47.6642136 -9,47.25 C-9,46.8357864 -8.66421356,46.5 -8.25,46.5 Z M18.75,46.5 C19.1642136,46.5 19.5,46.8357864 19.5,47.25 C19.5,47.6642136 19.1642136,48 18.75,48 C18.3357864,48 18,47.6642136 18,47.25 C18,46.8357864 18.3357864,46.5 18.75,46.5 Z M0.75,46.5 C1.16421356,46.5 1.5,46.8357864 1.5,47.25 C1.5,47.6642136 1.16421356,48 0.75,48 C0.335786438,48 0,47.6642136 0,47.25 C0,46.8357864 0.335786438,46.5 0.75,46.5 Z M-3.75,46.5 C-3.33578644,46.5 -3,46.8357864 -3,47.25 C-3,47.6642136 -3.33578644,48 -3.75,48 C-4.16421356,48 -4.5,47.6642136 -4.5,47.25 C-4.5,46.8357864 -4.16421356,46.5 -3.75,46.5 Z M5.25,46.5 C5.66421356,46.5 6,46.8357864 6,47.25 C6,47.6642136 5.66421356,48 5.25,48 C4.83578644,48 4.5,47.6642136 4.5,47.25 C4.5,46.8357864 4.83578644,46.5 5.25,46.5 Z M-12.75,46.5 C-12.3357864,46.5 -12,46.8357864 -12,47.25 C-12,47.6642136 -12.3357864,48 -12.75,48 C-13.1642136,48 -13.5,47.6642136 -13.5,47.25 C-13.5,46.8357864 -13.1642136,46.5 -12.75,46.5 Z M-21.75,46.5 C-21.3357864,46.5 -21,46.8357864 -21,47.25 C-21,47.6642136 -21.3357864,48 -21.75,48 C-22.1642136,48 -22.5,47.6642136 -22.5,47.25 C-22.5,46.8357864 -22.1642136,46.5 -21.75,46.5 Z M-17.25,46.5 C-16.8357864,46.5 -16.5,46.8357864 -16.5,47.25 C-16.5,47.6642136 -16.8357864,48 -17.25,48 C-17.6642136,48 -18,47.6642136 -18,47.25 C-18,46.8357864 -17.6642136,46.5 -17.25,46.5 Z M14.25,42 C14.6642136,42 15,42.3357864 15,42.75 C15,43.1642136 14.6642136,43.5 14.25,43.5 C13.8357864,43.5 13.5,43.1642136 13.5,42.75 C13.5,42.3357864 13.8357864,42 14.25,42 Z M54.75,42 C55.1642136,42 55.5,42.3357864 55.5,42.75 C55.5,43.1642136 55.1642136,43.5 54.75,43.5 C54.3357864,43.5 54,43.1642136 54,42.75 C54,42.3357864 54.3357864,42 54.75,42 Z M45.75,42 C46.1642136,42 46.5,42.3357864 46.5,42.75 C46.5,43.1642136 46.1642136,43.5 45.75,43.5 C45.3357864,43.5 45,43.1642136 45,42.75 C45,42.3357864 45.3357864,42 45.75,42 Z M-26.25,42 C-25.8357864,42 -25.5,42.3357864 -25.5,42.75 C-25.5,43.1642136 -25.8357864,43.5 -26.25,43.5 C-26.6642136,43.5 -27,43.1642136 -27,42.75 C-27,42.3357864 -26.6642136,42 -26.25,42 Z M-12.75,42 C-12.3357864,42 -12,42.3357864 -12,42.75 C-12,43.1642136 -12.3357864,43.5 -12.75,43.5 C-13.1642136,43.5 -13.5,43.1642136 -13.5,42.75 C-13.5,42.3357864 -13.1642136,42 -12.75,42 Z M-21.75,42 C-21.3357864,42 -21,42.3357864 -21,42.75 C-21,43.1642136 -21.3357864,43.5 -21.75,43.5 C-22.1642136,43.5 -22.5,43.1642136 -22.5,42.75 C-22.5,42.3357864 -22.1642136,42 -21.75,42 Z M-17.25,42 C-16.8357864,42 -16.5,42.3357864 -16.5,42.75 C-16.5,43.1642136 -16.8357864,43.5 -17.25,43.5 C-17.6642136,43.5 -18,43.1642136 -18,42.75 C-18,42.3357864 -17.6642136,42 -17.25,42 Z M-8.25,42 C-7.83578644,42 -7.5,42.3357864 -7.5,42.75 C-7.5,43.1642136 -7.83578644,43.5 -8.25,43.5 C-8.66421356,43.5 -9,43.1642136 -9,42.75 C-9,42.3357864 -8.66421356,42 -8.25,42 Z M0.75,42 C1.16421356,42 1.5,42.3357864 1.5,42.75 C1.5,43.1642136 1.16421356,43.5 0.75,43.5 C0.335786438,43.5 0,43.1642136 0,42.75 C0,42.3357864 0.335786438,42 0.75,42 Z M-3.75,42 C-3.33578644,42 -3,42.3357864 -3,42.75 C-3,43.1642136 -3.33578644,43.5 -3.75,43.5 C-4.16421356,43.5 -4.5,43.1642136 -4.5,42.75 C-4.5,42.3357864 -4.16421356,42 -3.75,42 Z M59.25,42 C59.6642136,42 60,42.3357864 60,42.75 C60,43.1642136 59.6642136,43.5 59.25,43.5 C58.8357864,43.5 58.5,43.1642136 58.5,42.75 C58.5,42.3357864 58.8357864,42 59.25,42 Z M5.25,42 C5.66421356,42 6,42.3357864 6,42.75 C6,43.1642136 5.66421356,43.5 5.25,43.5 C4.83578644,43.5 4.5,43.1642136 4.5,42.75 C4.5,42.3357864 4.83578644,42 5.25,42 Z M18.75,42 C19.1642136,42 19.5,42.3357864 19.5,42.75 C19.5,43.1642136 19.1642136,43.5 18.75,43.5 C18.3357864,43.5 18,43.1642136 18,42.75 C18,42.3357864 18.3357864,42 18.75,42 Z M9.75,42 C10.1642136,42 10.5,42.3357864 10.5,42.75 C10.5,43.1642136 10.1642136,43.5 9.75,43.5 C9.33578644,43.5 9,43.1642136 9,42.75 C9,42.3357864 9.33578644,42 9.75,42 Z M41.25,42 C41.6642136,42 42,42.3357864 42,42.75 C42,43.1642136 41.6642136,43.5 41.25,43.5 C40.8357864,43.5 40.5,43.1642136 40.5,42.75 C40.5,42.3357864 40.8357864,42 41.25,42 Z M32.25,42 C32.6642136,42 33,42.3357864 33,42.75 C33,43.1642136 32.6642136,43.5 32.25,43.5 C31.8357864,43.5 31.5,43.1642136 31.5,42.75 C31.5,42.3357864 31.8357864,42 32.25,42 Z M36.75,42 C37.1642136,42 37.5,42.3357864 37.5,42.75 C37.5,43.1642136 37.1642136,43.5 36.75,43.5 C36.3357864,43.5 36,43.1642136 36,42.75 C36,42.3357864 36.3357864,42 36.75,42 Z M27.75,42 C28.1642136,42 28.5,42.3357864 28.5,42.75 C28.5,43.1642136 28.1642136,43.5 27.75,43.5 C27.3357864,43.5 27,43.1642136 27,42.75 C27,42.3357864 27.3357864,42 27.75,42 Z M23.25,42 C23.6642136,42 24,42.3357864 24,42.75 C24,43.1642136 23.6642136,43.5 23.25,43.5 C22.8357864,43.5 22.5,43.1642136 22.5,42.75 C22.5,42.3357864 22.8357864,42 23.25,42 Z M50.25,42 C50.6642136,42 51,42.3357864 51,42.75 C51,43.1642136 50.6642136,43.5 50.25,43.5 C49.8357864,43.5 49.5,43.1642136 49.5,42.75 C49.5,42.3357864 49.8357864,42 50.25,42 Z M-17.25,37.5 C-16.8357864,37.5 -16.5,37.8357864 -16.5,38.25 C-16.5,38.6642136 -16.8357864,39 -17.25,39 C-17.6642136,39 -18,38.6642136 -18,38.25 C-18,37.8357864 -17.6642136,37.5 -17.25,37.5 Z M50.25,37.5 C50.6642136,37.5 51,37.8357864 51,38.25 C51,38.6642136 50.6642136,39 50.25,39 C49.8357864,39 49.5,38.6642136 49.5,38.25 C49.5,37.8357864 49.8357864,37.5 50.25,37.5 Z M-26.25,37.5 C-25.8357864,37.5 -25.5,37.8357864 -25.5,38.25 C-25.5,38.6642136 -25.8357864,39 -26.25,39 C-26.6642136,39 -27,38.6642136 -27,38.25 C-27,37.8357864 -26.6642136,37.5 -26.25,37.5 Z M5.25,37.5 C5.66421356,37.5 6,37.8357864 6,38.25 C6,38.6642136 5.66421356,39 5.25,39 C4.83578644,39 4.5,38.6642136 4.5,38.25 C4.5,37.8357864 4.83578644,37.5 5.25,37.5 Z M-3.75,37.5 C-3.33578644,37.5 -3,37.8357864 -3,38.25 C-3,38.6642136 -3.33578644,39 -3.75,39 C-4.16421356,39 -4.5,38.6642136 -4.5,38.25 C-4.5,37.8357864 -4.16421356,37.5 -3.75,37.5 Z M0.75,37.5 C1.16421356,37.5 1.5,37.8357864 1.5,38.25 C1.5,38.6642136 1.16421356,39 0.75,39 C0.335786438,39 0,38.6642136 0,38.25 C0,37.8357864 0.335786438,37.5 0.75,37.5 Z M-8.25,37.5 C-7.83578644,37.5 -7.5,37.8357864 -7.5,38.25 C-7.5,38.6642136 -7.83578644,39 -8.25,39 C-8.66421356,39 -9,38.6642136 -9,38.25 C-9,37.8357864 -8.66421356,37.5 -8.25,37.5 Z M-12.75,37.5 C-12.3357864,37.5 -12,37.8357864 -12,38.25 C-12,38.6642136 -12.3357864,39 -12.75,39 C-13.1642136,39 -13.5,38.6642136 -13.5,38.25 C-13.5,37.8357864 -13.1642136,37.5 -12.75,37.5 Z M-21.75,37.5 C-21.3357864,37.5 -21,37.8357864 -21,38.25 C-21,38.6642136 -21.3357864,39 -21.75,39 C-22.1642136,39 -22.5,38.6642136 -22.5,38.25 C-22.5,37.8357864 -22.1642136,37.5 -21.75,37.5 Z M59.25,37.5 C59.6642136,37.5 60,37.8357864 60,38.25 C60,38.6642136 59.6642136,39 59.25,39 C58.8357864,39 58.5,38.6642136 58.5,38.25 C58.5,37.8357864 58.8357864,37.5 59.25,37.5 Z M45.75,37.5 C46.1642136,37.5 46.5,37.8357864 46.5,38.25 C46.5,38.6642136 46.1642136,39 45.75,39 C45.3357864,39 45,38.6642136 45,38.25 C45,37.8357864 45.3357864,37.5 45.75,37.5 Z M54.75,37.5 C55.1642136,37.5 55.5,37.8357864 55.5,38.25 C55.5,38.6642136 55.1642136,39 54.75,39 C54.3357864,39 54,38.6642136 54,38.25 C54,37.8357864 54.3357864,37.5 54.75,37.5 Z M36.75,37.5 C37.1642136,37.5 37.5,37.8357864 37.5,38.25 C37.5,38.6642136 37.1642136,39 36.75,39 C36.3357864,39 36,38.6642136 36,38.25 C36,37.8357864 36.3357864,37.5 36.75,37.5 Z M27.75,37.5 C28.1642136,37.5 28.5,37.8357864 28.5,38.25 C28.5,38.6642136 28.1642136,39 27.75,39 C27.3357864,39 27,38.6642136 27,38.25 C27,37.8357864 27.3357864,37.5 27.75,37.5 Z M23.25,37.5 C23.6642136,37.5 24,37.8357864 24,38.25 C24,38.6642136 23.6642136,39 23.25,39 C22.8357864,39 22.5,38.6642136 22.5,38.25 C22.5,37.8357864 22.8357864,37.5 23.25,37.5 Z M9.75,37.5 C10.1642136,37.5 10.5,37.8357864 10.5,38.25 C10.5,38.6642136 10.1642136,39 9.75,39 C9.33578644,39 9,38.6642136 9,38.25 C9,37.8357864 9.33578644,37.5 9.75,37.5 Z M18.75,37.5 C19.1642136,37.5 19.5,37.8357864 19.5,38.25 C19.5,38.6642136 19.1642136,39 18.75,39 C18.3357864,39 18,38.6642136 18,38.25 C18,37.8357864 18.3357864,37.5 18.75,37.5 Z M14.25,37.5 C14.6642136,37.5 15,37.8357864 15,38.25 C15,38.6642136 14.6642136,39 14.25,39 C13.8357864,39 13.5,38.6642136 13.5,38.25 C13.5,37.8357864 13.8357864,37.5 14.25,37.5 Z M41.25,37.5 C41.6642136,37.5 42,37.8357864 42,38.25 C42,38.6642136 41.6642136,39 41.25,39 C40.8357864,39 40.5,38.6642136 40.5,38.25 C40.5,37.8357864 40.8357864,37.5 41.25,37.5 Z M32.25,37.5 C32.6642136,37.5 33,37.8357864 33,38.25 C33,38.6642136 32.6642136,39 32.25,39 C31.8357864,39 31.5,38.6642136 31.5,38.25 C31.5,37.8357864 31.8357864,37.5 32.25,37.5 Z M23.25,33 C23.6642136,33 24,33.3357864 24,33.75 C24,34.1642136 23.6642136,34.5 23.25,34.5 C22.8357864,34.5 22.5,34.1642136 22.5,33.75 C22.5,33.3357864 22.8357864,33 23.25,33 Z M41.25,33 C41.6642136,33 42,33.3357864 42,33.75 C42,34.1642136 41.6642136,34.5 41.25,34.5 C40.8357864,34.5 40.5,34.1642136 40.5,33.75 C40.5,33.3357864 40.8357864,33 41.25,33 Z M32.25,33 C32.6642136,33 33,33.3357864 33,33.75 C33,34.1642136 32.6642136,34.5 32.25,34.5 C31.8357864,34.5 31.5,34.1642136 31.5,33.75 C31.5,33.3357864 31.8357864,33 32.25,33 Z M36.75,33 C37.1642136,33 37.5,33.3357864 37.5,33.75 C37.5,34.1642136 37.1642136,34.5 36.75,34.5 C36.3357864,34.5 36,34.1642136 36,33.75 C36,33.3357864 36.3357864,33 36.75,33 Z M27.75,33 C28.1642136,33 28.5,33.3357864 28.5,33.75 C28.5,34.1642136 28.1642136,34.5 27.75,34.5 C27.3357864,34.5 27,34.1642136 27,33.75 C27,33.3357864 27.3357864,33 27.75,33 Z M9.75,33 C10.1642136,33 10.5,33.3357864 10.5,33.75 C10.5,34.1642136 10.1642136,34.5 9.75,34.5 C9.33578644,34.5 9,34.1642136 9,33.75 C9,33.3357864 9.33578644,33 9.75,33 Z M18.75,33 C19.1642136,33 19.5,33.3357864 19.5,33.75 C19.5,34.1642136 19.1642136,34.5 18.75,34.5 C18.3357864,34.5 18,34.1642136 18,33.75 C18,33.3357864 18.3357864,33 18.75,33 Z M14.25,33 C14.6642136,33 15,33.3357864 15,33.75 C15,34.1642136 14.6642136,34.5 14.25,34.5 C13.8357864,34.5 13.5,34.1642136 13.5,33.75 C13.5,33.3357864 13.8357864,33 14.25,33 Z M-8.25,33 C-7.83578644,33 -7.5,33.3357864 -7.5,33.75 C-7.5,34.1642136 -7.83578644,34.5 -8.25,34.5 C-8.66421356,34.5 -9,34.1642136 -9,33.75 C-9,33.3357864 -8.66421356,33 -8.25,33 Z M0.75,33 C1.16421356,33 1.5,33.3357864 1.5,33.75 C1.5,34.1642136 1.16421356,34.5 0.75,34.5 C0.335786438,34.5 0,34.1642136 0,33.75 C0,33.3357864 0.335786438,33 0.75,33 Z M-3.75,33 C-3.33578644,33 -3,33.3357864 -3,33.75 C-3,34.1642136 -3.33578644,34.5 -3.75,34.5 C-4.16421356,34.5 -4.5,34.1642136 -4.5,33.75 C-4.5,33.3357864 -4.16421356,33 -3.75,33 Z M5.25,33 C5.66421356,33 6,33.3357864 6,33.75 C6,34.1642136 5.66421356,34.5 5.25,34.5 C4.83578644,34.5 4.5,34.1642136 4.5,33.75 C4.5,33.3357864 4.83578644,33 5.25,33 Z M50.25,33 C50.6642136,33 51,33.3357864 51,33.75 C51,34.1642136 50.6642136,34.5 50.25,34.5 C49.8357864,34.5 49.5,34.1642136 49.5,33.75 C49.5,33.3357864 49.8357864,33 50.25,33 Z M59.25,33 C59.6642136,33 60,33.3357864 60,33.75 C60,34.1642136 59.6642136,34.5 59.25,34.5 C58.8357864,34.5 58.5,34.1642136 58.5,33.75 C58.5,33.3357864 58.8357864,33 59.25,33 Z M45.75,33 C46.1642136,33 46.5,33.3357864 46.5,33.75 C46.5,34.1642136 46.1642136,34.5 45.75,34.5 C45.3357864,34.5 45,34.1642136 45,33.75 C45,33.3357864 45.3357864,33 45.75,33 Z M54.75,33 C55.1642136,33 55.5,33.3357864 55.5,33.75 C55.5,34.1642136 55.1642136,34.5 54.75,34.5 C54.3357864,34.5 54,34.1642136 54,33.75 C54,33.3357864 54.3357864,33 54.75,33 Z M-26.25,33 C-25.8357864,33 -25.5,33.3357864 -25.5,33.75 C-25.5,34.1642136 -25.8357864,34.5 -26.25,34.5 C-26.6642136,34.5 -27,34.1642136 -27,33.75 C-27,33.3357864 -26.6642136,33 -26.25,33 Z M-17.25,33 C-16.8357864,33 -16.5,33.3357864 -16.5,33.75 C-16.5,34.1642136 -16.8357864,34.5 -17.25,34.5 C-17.6642136,34.5 -18,34.1642136 -18,33.75 C-18,33.3357864 -17.6642136,33 -17.25,33 Z M-12.75,33 C-12.3357864,33 -12,33.3357864 -12,33.75 C-12,34.1642136 -12.3357864,34.5 -12.75,34.5 C-13.1642136,34.5 -13.5,34.1642136 -13.5,33.75 C-13.5,33.3357864 -13.1642136,33 -12.75,33 Z M-21.75,33 C-21.3357864,33 -21,33.3357864 -21,33.75 C-21,34.1642136 -21.3357864,34.5 -21.75,34.5 C-22.1642136,34.5 -22.5,34.1642136 -22.5,33.75 C-22.5,33.3357864 -22.1642136,33 -21.75,33 Z M9.75,28.5 C10.1642136,28.5 10.5,28.8357864 10.5,29.25 C10.5,29.6642136 10.1642136,30 9.75,30 C9.33578644,30 9,29.6642136 9,29.25 C9,28.8357864 9.33578644,28.5 9.75,28.5 Z M18.75,28.5 C19.1642136,28.5 19.5,28.8357864 19.5,29.25 C19.5,29.6642136 19.1642136,30 18.75,30 C18.3357864,30 18,29.6642136 18,29.25 C18,28.8357864 18.3357864,28.5 18.75,28.5 Z M14.25,28.5 C14.6642136,28.5 15,28.8357864 15,29.25 C15,29.6642136 14.6642136,30 14.25,30 C13.8357864,30 13.5,29.6642136 13.5,29.25 C13.5,28.8357864 13.8357864,28.5 14.25,28.5 Z M23.25,28.5 C23.6642136,28.5 24,28.8357864 24,29.25 C24,29.6642136 23.6642136,30 23.25,30 C22.8357864,30 22.5,29.6642136 22.5,29.25 C22.5,28.8357864 22.8357864,28.5 23.25,28.5 Z M27.75,28.5 C28.1642136,28.5 28.5,28.8357864 28.5,29.25 C28.5,29.6642136 28.1642136,30 27.75,30 C27.3357864,30 27,29.6642136 27,29.25 C27,28.8357864 27.3357864,28.5 27.75,28.5 Z M36.75,28.5 C37.1642136,28.5 37.5,28.8357864 37.5,29.25 C37.5,29.6642136 37.1642136,30 36.75,30 C36.3357864,30 36,29.6642136 36,29.25 C36,28.8357864 36.3357864,28.5 36.75,28.5 Z M32.25,28.5 C32.6642136,28.5 33,28.8357864 33,29.25 C33,29.6642136 32.6642136,30 32.25,30 C31.8357864,30 31.5,29.6642136 31.5,29.25 C31.5,28.8357864 31.8357864,28.5 32.25,28.5 Z M41.25,28.5 C41.6642136,28.5 42,28.8357864 42,29.25 C42,29.6642136 41.6642136,30 41.25,30 C40.8357864,30 40.5,29.6642136 40.5,29.25 C40.5,28.8357864 40.8357864,28.5 41.25,28.5 Z M45.75,28.5 C46.1642136,28.5 46.5,28.8357864 46.5,29.25 C46.5,29.6642136 46.1642136,30 45.75,30 C45.3357864,30 45,29.6642136 45,29.25 C45,28.8357864 45.3357864,28.5 45.75,28.5 Z M54.75,28.5 C55.1642136,28.5 55.5,28.8357864 55.5,29.25 C55.5,29.6642136 55.1642136,30 54.75,30 C54.3357864,30 54,29.6642136 54,29.25 C54,28.8357864 54.3357864,28.5 54.75,28.5 Z M50.25,28.5 C50.6642136,28.5 51,28.8357864 51,29.25 C51,29.6642136 50.6642136,30 50.25,30 C49.8357864,30 49.5,29.6642136 49.5,29.25 C49.5,28.8357864 49.8357864,28.5 50.25,28.5 Z M59.25,28.5 C59.6642136,28.5 60,28.8357864 60,29.25 C60,29.6642136 59.6642136,30 59.25,30 C58.8357864,30 58.5,29.6642136 58.5,29.25 C58.5,28.8357864 58.8357864,28.5 59.25,28.5 Z M5.25,28.5 C5.66421356,28.5 6,28.8357864 6,29.25 C6,29.6642136 5.66421356,30 5.25,30 C4.83578644,30 4.5,29.6642136 4.5,29.25 C4.5,28.8357864 4.83578644,28.5 5.25,28.5 Z M-3.75,28.5 C-3.33578644,28.5 -3,28.8357864 -3,29.25 C-3,29.6642136 -3.33578644,30 -3.75,30 C-4.16421356,30 -4.5,29.6642136 -4.5,29.25 C-4.5,28.8357864 -4.16421356,28.5 -3.75,28.5 Z M0.75,28.5 C1.16421356,28.5 1.5,28.8357864 1.5,29.25 C1.5,29.6642136 1.16421356,30 0.75,30 C0.335786438,30 0,29.6642136 0,29.25 C0,28.8357864 0.335786438,28.5 0.75,28.5 Z M-8.25,28.5 C-7.83578644,28.5 -7.5,28.8357864 -7.5,29.25 C-7.5,29.6642136 -7.83578644,30 -8.25,30 C-8.66421356,30 -9,29.6642136 -9,29.25 C-9,28.8357864 -8.66421356,28.5 -8.25,28.5 Z M-12.75,28.5 C-12.3357864,28.5 -12,28.8357864 -12,29.25 C-12,29.6642136 -12.3357864,30 -12.75,30 C-13.1642136,30 -13.5,29.6642136 -13.5,29.25 C-13.5,28.8357864 -13.1642136,28.5 -12.75,28.5 Z M-21.75,28.5 C-21.3357864,28.5 -21,28.8357864 -21,29.25 C-21,29.6642136 -21.3357864,30 -21.75,30 C-22.1642136,30 -22.5,29.6642136 -22.5,29.25 C-22.5,28.8357864 -22.1642136,28.5 -21.75,28.5 Z M-17.25,28.5 C-16.8357864,28.5 -16.5,28.8357864 -16.5,29.25 C-16.5,29.6642136 -16.8357864,30 -17.25,30 C-17.6642136,30 -18,29.6642136 -18,29.25 C-18,28.8357864 -17.6642136,28.5 -17.25,28.5 Z M-26.25,28.5 C-25.8357864,28.5 -25.5,28.8357864 -25.5,29.25 C-25.5,29.6642136 -25.8357864,30 -26.25,30 C-26.6642136,30 -27,29.6642136 -27,29.25 C-27,28.8357864 -26.6642136,28.5 -26.25,28.5 Z M36.75,24 C37.1642136,24 37.5,24.3357864 37.5,24.75 C37.5,25.1642136 37.1642136,25.5 36.75,25.5 C36.3357864,25.5 36,25.1642136 36,24.75 C36,24.3357864 36.3357864,24 36.75,24 Z M-3.75,24 C-3.33578644,24 -3,24.3357864 -3,24.75 C-3,25.1642136 -3.33578644,25.5 -3.75,25.5 C-4.16421356,25.5 -4.5,25.1642136 -4.5,24.75 C-4.5,24.3357864 -4.16421356,24 -3.75,24 Z M9.75,24 C10.1642136,24 10.5,24.3357864 10.5,24.75 C10.5,25.1642136 10.1642136,25.5 9.75,25.5 C9.33578644,25.5 9,25.1642136 9,24.75 C9,24.3357864 9.33578644,24 9.75,24 Z M18.75,24 C19.1642136,24 19.5,24.3357864 19.5,24.75 C19.5,25.1642136 19.1642136,25.5 18.75,25.5 C18.3357864,25.5 18,25.1642136 18,24.75 C18,24.3357864 18.3357864,24 18.75,24 Z M14.25,24 C14.6642136,24 15,24.3357864 15,24.75 C15,25.1642136 14.6642136,25.5 14.25,25.5 C13.8357864,25.5 13.5,25.1642136 13.5,24.75 C13.5,24.3357864 13.8357864,24 14.25,24 Z M23.25,24 C23.6642136,24 24,24.3357864 24,24.75 C24,25.1642136 23.6642136,25.5 23.25,25.5 C22.8357864,25.5 22.5,25.1642136 22.5,24.75 C22.5,24.3357864 22.8357864,24 23.25,24 Z M27.75,24 C28.1642136,24 28.5,24.3357864 28.5,24.75 C28.5,25.1642136 28.1642136,25.5 27.75,25.5 C27.3357864,25.5 27,25.1642136 27,24.75 C27,24.3357864 27.3357864,24 27.75,24 Z M32.25,24 C32.6642136,24 33,24.3357864 33,24.75 C33,25.1642136 32.6642136,25.5 32.25,25.5 C31.8357864,25.5 31.5,25.1642136 31.5,24.75 C31.5,24.3357864 31.8357864,24 32.25,24 Z M41.25,24 C41.6642136,24 42,24.3357864 42,24.75 C42,25.1642136 41.6642136,25.5 41.25,25.5 C40.8357864,25.5 40.5,25.1642136 40.5,24.75 C40.5,24.3357864 40.8357864,24 41.25,24 Z M-26.25,24 C-25.8357864,24 -25.5,24.3357864 -25.5,24.75 C-25.5,25.1642136 -25.8357864,25.5 -26.25,25.5 C-26.6642136,25.5 -27,25.1642136 -27,24.75 C-27,24.3357864 -26.6642136,24 -26.25,24 Z M-17.25,24 C-16.8357864,24 -16.5,24.3357864 -16.5,24.75 C-16.5,25.1642136 -16.8357864,25.5 -17.25,25.5 C-17.6642136,25.5 -18,25.1642136 -18,24.75 C-18,24.3357864 -17.6642136,24 -17.25,24 Z M-21.75,24 C-21.3357864,24 -21,24.3357864 -21,24.75 C-21,25.1642136 -21.3357864,25.5 -21.75,25.5 C-22.1642136,25.5 -22.5,25.1642136 -22.5,24.75 C-22.5,24.3357864 -22.1642136,24 -21.75,24 Z M-12.75,24 C-12.3357864,24 -12,24.3357864 -12,24.75 C-12,25.1642136 -12.3357864,25.5 -12.75,25.5 C-13.1642136,25.5 -13.5,25.1642136 -13.5,24.75 C-13.5,24.3357864 -13.1642136,24 -12.75,24 Z M-8.25,24 C-7.83578644,24 -7.5,24.3357864 -7.5,24.75 C-7.5,25.1642136 -7.83578644,25.5 -8.25,25.5 C-8.66421356,25.5 -9,25.1642136 -9,24.75 C-9,24.3357864 -8.66421356,24 -8.25,24 Z M0.75,24 C1.16421356,24 1.5,24.3357864 1.5,24.75 C1.5,25.1642136 1.16421356,25.5 0.75,25.5 C0.335786438,25.5 0,25.1642136 0,24.75 C0,24.3357864 0.335786438,24 0.75,24 Z M59.25,24 C59.6642136,24 60,24.3357864 60,24.75 C60,25.1642136 59.6642136,25.5 59.25,25.5 C58.8357864,25.5 58.5,25.1642136 58.5,24.75 C58.5,24.3357864 58.8357864,24 59.25,24 Z M50.25,24 C50.6642136,24 51,24.3357864 51,24.75 C51,25.1642136 50.6642136,25.5 50.25,25.5 C49.8357864,25.5 49.5,25.1642136 49.5,24.75 C49.5,24.3357864 49.8357864,24 50.25,24 Z M54.75,24 C55.1642136,24 55.5,24.3357864 55.5,24.75 C55.5,25.1642136 55.1642136,25.5 54.75,25.5 C54.3357864,25.5 54,25.1642136 54,24.75 C54,24.3357864 54.3357864,24 54.75,24 Z M45.75,24 C46.1642136,24 46.5,24.3357864 46.5,24.75 C46.5,25.1642136 46.1642136,25.5 45.75,25.5 C45.3357864,25.5 45,25.1642136 45,24.75 C45,24.3357864 45.3357864,24 45.75,24 Z M5.25,24 C5.66421356,24 6,24.3357864 6,24.75 C6,25.1642136 5.66421356,25.5 5.25,25.5 C4.83578644,25.5 4.5,25.1642136 4.5,24.75 C4.5,24.3357864 4.83578644,24 5.25,24 Z M32.25,19.5 C32.6642136,19.5 33,19.8357864 33,20.25 C33,20.6642136 32.6642136,21 32.25,21 C31.8357864,21 31.5,20.6642136 31.5,20.25 C31.5,19.8357864 31.8357864,19.5 32.25,19.5 Z M-26.25,19.5 C-25.8357864,19.5 -25.5,19.8357864 -25.5,20.25 C-25.5,20.6642136 -25.8357864,21 -26.25,21 C-26.6642136,21 -27,20.6642136 -27,20.25 C-27,19.8357864 -26.6642136,19.5 -26.25,19.5 Z M-21.75,19.5 C-21.3357864,19.5 -21,19.8357864 -21,20.25 C-21,20.6642136 -21.3357864,21 -21.75,21 C-22.1642136,21 -22.5,20.6642136 -22.5,20.25 C-22.5,19.8357864 -22.1642136,19.5 -21.75,19.5 Z M-12.75,19.5 C-12.3357864,19.5 -12,19.8357864 -12,20.25 C-12,20.6642136 -12.3357864,21 -12.75,21 C-13.1642136,21 -13.5,20.6642136 -13.5,20.25 C-13.5,19.8357864 -13.1642136,19.5 -12.75,19.5 Z M-8.25,19.5 C-7.83578644,19.5 -7.5,19.8357864 -7.5,20.25 C-7.5,20.6642136 -7.83578644,21 -8.25,21 C-8.66421356,21 -9,20.6642136 -9,20.25 C-9,19.8357864 -8.66421356,19.5 -8.25,19.5 Z M36.75,19.5 C37.1642136,19.5 37.5,19.8357864 37.5,20.25 C37.5,20.6642136 37.1642136,21 36.75,21 C36.3357864,21 36,20.6642136 36,20.25 C36,19.8357864 36.3357864,19.5 36.75,19.5 Z M-3.75,19.5 C-3.33578644,19.5 -3,19.8357864 -3,20.25 C-3,20.6642136 -3.33578644,21 -3.75,21 C-4.16421356,21 -4.5,20.6642136 -4.5,20.25 C-4.5,19.8357864 -4.16421356,19.5 -3.75,19.5 Z M27.75,19.5 C28.1642136,19.5 28.5,19.8357864 28.5,20.25 C28.5,20.6642136 28.1642136,21 27.75,21 C27.3357864,21 27,20.6642136 27,20.25 C27,19.8357864 27.3357864,19.5 27.75,19.5 Z M23.25,19.5 C23.6642136,19.5 24,19.8357864 24,20.25 C24,20.6642136 23.6642136,21 23.25,21 C22.8357864,21 22.5,20.6642136 22.5,20.25 C22.5,19.8357864 22.8357864,19.5 23.25,19.5 Z M14.25,19.5 C14.6642136,19.5 15,19.8357864 15,20.25 C15,20.6642136 14.6642136,21 14.25,21 C13.8357864,21 13.5,20.6642136 13.5,20.25 C13.5,19.8357864 13.8357864,19.5 14.25,19.5 Z M18.75,19.5 C19.1642136,19.5 19.5,19.8357864 19.5,20.25 C19.5,20.6642136 19.1642136,21 18.75,21 C18.3357864,21 18,20.6642136 18,20.25 C18,19.8357864 18.3357864,19.5 18.75,19.5 Z M9.75,19.5 C10.1642136,19.5 10.5,19.8357864 10.5,20.25 C10.5,20.6642136 10.1642136,21 9.75,21 C9.33578644,21 9,20.6642136 9,20.25 C9,19.8357864 9.33578644,19.5 9.75,19.5 Z M5.25,19.5 C5.66421356,19.5 6,19.8357864 6,20.25 C6,20.6642136 5.66421356,21 5.25,21 C4.83578644,21 4.5,20.6642136 4.5,20.25 C4.5,19.8357864 4.83578644,19.5 5.25,19.5 Z M59.25,19.5 C59.6642136,19.5 60,19.8357864 60,20.25 C60,20.6642136 59.6642136,21 59.25,21 C58.8357864,21 58.5,20.6642136 58.5,20.25 C58.5,19.8357864 58.8357864,19.5 59.25,19.5 Z M45.75,19.5 C46.1642136,19.5 46.5,19.8357864 46.5,20.25 C46.5,20.6642136 46.1642136,21 45.75,21 C45.3357864,21 45,20.6642136 45,20.25 C45,19.8357864 45.3357864,19.5 45.75,19.5 Z M54.75,19.5 C55.1642136,19.5 55.5,19.8357864 55.5,20.25 C55.5,20.6642136 55.1642136,21 54.75,21 C54.3357864,21 54,20.6642136 54,20.25 C54,19.8357864 54.3357864,19.5 54.75,19.5 Z M50.25,19.5 C50.6642136,19.5 51,19.8357864 51,20.25 C51,20.6642136 50.6642136,21 50.25,21 C49.8357864,21 49.5,20.6642136 49.5,20.25 C49.5,19.8357864 49.8357864,19.5 50.25,19.5 Z M-17.25,19.5 C-16.8357864,19.5 -16.5,19.8357864 -16.5,20.25 C-16.5,20.6642136 -16.8357864,21 -17.25,21 C-17.6642136,21 -18,20.6642136 -18,20.25 C-18,19.8357864 -17.6642136,19.5 -17.25,19.5 Z M41.25,19.5 C41.6642136,19.5 42,19.8357864 42,20.25 C42,20.6642136 41.6642136,21 41.25,21 C40.8357864,21 40.5,20.6642136 40.5,20.25 C40.5,19.8357864 40.8357864,19.5 41.25,19.5 Z M0.75,19.5 C1.16421356,19.5 1.5,19.8357864 1.5,20.25 C1.5,20.6642136 1.16421356,21 0.75,21 C0.335786438,21 0,20.6642136 0,20.25 C0,19.8357864 0.335786438,19.5 0.75,19.5 Z M41.25,15 C41.6642136,15 42,15.3357864 42,15.75 C42,16.1642136 41.6642136,16.5 41.25,16.5 C40.8357864,16.5 40.5,16.1642136 40.5,15.75 C40.5,15.3357864 40.8357864,15 41.25,15 Z M-3.75,15 C-3.33578644,15 -3,15.3357864 -3,15.75 C-3,16.1642136 -3.33578644,16.5 -3.75,16.5 C-4.16421356,16.5 -4.5,16.1642136 -4.5,15.75 C-4.5,15.3357864 -4.16421356,15 -3.75,15 Z M32.25,15 C32.6642136,15 33,15.3357864 33,15.75 C33,16.1642136 32.6642136,16.5 32.25,16.5 C31.8357864,16.5 31.5,16.1642136 31.5,15.75 C31.5,15.3357864 31.8357864,15 32.25,15 Z M36.75,15 C37.1642136,15 37.5,15.3357864 37.5,15.75 C37.5,16.1642136 37.1642136,16.5 36.75,16.5 C36.3357864,16.5 36,16.1642136 36,15.75 C36,15.3357864 36.3357864,15 36.75,15 Z M27.75,15 C28.1642136,15 28.5,15.3357864 28.5,15.75 C28.5,16.1642136 28.1642136,16.5 27.75,16.5 C27.3357864,16.5 27,16.1642136 27,15.75 C27,15.3357864 27.3357864,15 27.75,15 Z M23.25,15 C23.6642136,15 24,15.3357864 24,15.75 C24,16.1642136 23.6642136,16.5 23.25,16.5 C22.8357864,16.5 22.5,16.1642136 22.5,15.75 C22.5,15.3357864 22.8357864,15 23.25,15 Z M14.25,15 C14.6642136,15 15,15.3357864 15,15.75 C15,16.1642136 14.6642136,16.5 14.25,16.5 C13.8357864,16.5 13.5,16.1642136 13.5,15.75 C13.5,15.3357864 13.8357864,15 14.25,15 Z M18.75,15 C19.1642136,15 19.5,15.3357864 19.5,15.75 C19.5,16.1642136 19.1642136,16.5 18.75,16.5 C18.3357864,16.5 18,16.1642136 18,15.75 C18,15.3357864 18.3357864,15 18.75,15 Z M9.75,15 C10.1642136,15 10.5,15.3357864 10.5,15.75 C10.5,16.1642136 10.1642136,16.5 9.75,16.5 C9.33578644,16.5 9,16.1642136 9,15.75 C9,15.3357864 9.33578644,15 9.75,15 Z M5.25,15 C5.66421356,15 6,15.3357864 6,15.75 C6,16.1642136 5.66421356,16.5 5.25,16.5 C4.83578644,16.5 4.5,16.1642136 4.5,15.75 C4.5,15.3357864 4.83578644,15 5.25,15 Z M50.25,15 C50.6642136,15 51,15.3357864 51,15.75 C51,16.1642136 50.6642136,16.5 50.25,16.5 C49.8357864,16.5 49.5,16.1642136 49.5,15.75 C49.5,15.3357864 49.8357864,15 50.25,15 Z M54.75,15 C55.1642136,15 55.5,15.3357864 55.5,15.75 C55.5,16.1642136 55.1642136,16.5 54.75,16.5 C54.3357864,16.5 54,16.1642136 54,15.75 C54,15.3357864 54.3357864,15 54.75,15 Z M45.75,15 C46.1642136,15 46.5,15.3357864 46.5,15.75 C46.5,16.1642136 46.1642136,16.5 45.75,16.5 C45.3357864,16.5 45,16.1642136 45,15.75 C45,15.3357864 45.3357864,15 45.75,15 Z M59.25,15 C59.6642136,15 60,15.3357864 60,15.75 C60,16.1642136 59.6642136,16.5 59.25,16.5 C58.8357864,16.5 58.5,16.1642136 58.5,15.75 C58.5,15.3357864 58.8357864,15 59.25,15 Z M-26.25,15 C-25.8357864,15 -25.5,15.3357864 -25.5,15.75 C-25.5,16.1642136 -25.8357864,16.5 -26.25,16.5 C-26.6642136,16.5 -27,16.1642136 -27,15.75 C-27,15.3357864 -26.6642136,15 -26.25,15 Z M-17.25,15 C-16.8357864,15 -16.5,15.3357864 -16.5,15.75 C-16.5,16.1642136 -16.8357864,16.5 -17.25,16.5 C-17.6642136,16.5 -18,16.1642136 -18,15.75 C-18,15.3357864 -17.6642136,15 -17.25,15 Z M-21.75,15 C-21.3357864,15 -21,15.3357864 -21,15.75 C-21,16.1642136 -21.3357864,16.5 -21.75,16.5 C-22.1642136,16.5 -22.5,16.1642136 -22.5,15.75 C-22.5,15.3357864 -22.1642136,15 -21.75,15 Z M-12.75,15 C-12.3357864,15 -12,15.3357864 -12,15.75 C-12,16.1642136 -12.3357864,16.5 -12.75,16.5 C-13.1642136,16.5 -13.5,16.1642136 -13.5,15.75 C-13.5,15.3357864 -13.1642136,15 -12.75,15 Z M-8.25,15 C-7.83578644,15 -7.5,15.3357864 -7.5,15.75 C-7.5,16.1642136 -7.83578644,16.5 -8.25,16.5 C-8.66421356,16.5 -9,16.1642136 -9,15.75 C-9,15.3357864 -8.66421356,15 -8.25,15 Z M0.75,15 C1.16421356,15 1.5,15.3357864 1.5,15.75 C1.5,16.1642136 1.16421356,16.5 0.75,16.5 C0.335786438,16.5 0,16.1642136 0,15.75 C0,15.3357864 0.335786438,15 0.75,15 Z M14.25,10.5 C14.6642136,10.5 15,10.8357864 15,11.25 C15,11.6642136 14.6642136,12 14.25,12 C13.8357864,12 13.5,11.6642136 13.5,11.25 C13.5,10.8357864 13.8357864,10.5 14.25,10.5 Z M-21.75,10.5 C-21.3357864,10.5 -21,10.8357864 -21,11.25 C-21,11.6642136 -21.3357864,12 -21.75,12 C-22.1642136,12 -22.5,11.6642136 -22.5,11.25 C-22.5,10.8357864 -22.1642136,10.5 -21.75,10.5 Z M41.25,10.5 C41.6642136,10.5 42,10.8357864 42,11.25 C42,11.6642136 41.6642136,12 41.25,12 C40.8357864,12 40.5,11.6642136 40.5,11.25 C40.5,10.8357864 40.8357864,10.5 41.25,10.5 Z M32.25,10.5 C32.6642136,10.5 33,10.8357864 33,11.25 C33,11.6642136 32.6642136,12 32.25,12 C31.8357864,12 31.5,11.6642136 31.5,11.25 C31.5,10.8357864 31.8357864,10.5 32.25,10.5 Z M36.75,10.5 C37.1642136,10.5 37.5,10.8357864 37.5,11.25 C37.5,11.6642136 37.1642136,12 36.75,12 C36.3357864,12 36,11.6642136 36,11.25 C36,10.8357864 36.3357864,10.5 36.75,10.5 Z M27.75,10.5 C28.1642136,10.5 28.5,10.8357864 28.5,11.25 C28.5,11.6642136 28.1642136,12 27.75,12 C27.3357864,12 27,11.6642136 27,11.25 C27,10.8357864 27.3357864,10.5 27.75,10.5 Z M50.25,10.5 C50.6642136,10.5 51,10.8357864 51,11.25 C51,11.6642136 50.6642136,12 50.25,12 C49.8357864,12 49.5,11.6642136 49.5,11.25 C49.5,10.8357864 49.8357864,10.5 50.25,10.5 Z M23.25,10.5 C23.6642136,10.5 24,10.8357864 24,11.25 C24,11.6642136 23.6642136,12 23.25,12 C22.8357864,12 22.5,11.6642136 22.5,11.25 C22.5,10.8357864 22.8357864,10.5 23.25,10.5 Z M45.75,10.5 C46.1642136,10.5 46.5,10.8357864 46.5,11.25 C46.5,11.6642136 46.1642136,12 45.75,12 C45.3357864,12 45,11.6642136 45,11.25 C45,10.8357864 45.3357864,10.5 45.75,10.5 Z M59.25,10.5 C59.6642136,10.5 60,10.8357864 60,11.25 C60,11.6642136 59.6642136,12 59.25,12 C58.8357864,12 58.5,11.6642136 58.5,11.25 C58.5,10.8357864 58.8357864,10.5 59.25,10.5 Z M9.75,10.5 C10.1642136,10.5 10.5,10.8357864 10.5,11.25 C10.5,11.6642136 10.1642136,12 9.75,12 C9.33578644,12 9,11.6642136 9,11.25 C9,10.8357864 9.33578644,10.5 9.75,10.5 Z M-8.25,10.5 C-7.83578644,10.5 -7.5,10.8357864 -7.5,11.25 C-7.5,11.6642136 -7.83578644,12 -8.25,12 C-8.66421356,12 -9,11.6642136 -9,11.25 C-9,10.8357864 -8.66421356,10.5 -8.25,10.5 Z M0.75,10.5 C1.16421356,10.5 1.5,10.8357864 1.5,11.25 C1.5,11.6642136 1.16421356,12 0.75,12 C0.335786438,12 0,11.6642136 0,11.25 C0,10.8357864 0.335786438,10.5 0.75,10.5 Z M-3.75,10.5 C-3.33578644,10.5 -3,10.8357864 -3,11.25 C-3,11.6642136 -3.33578644,12 -3.75,12 C-4.16421356,12 -4.5,11.6642136 -4.5,11.25 C-4.5,10.8357864 -4.16421356,10.5 -3.75,10.5 Z M-12.75,10.5 C-12.3357864,10.5 -12,10.8357864 -12,11.25 C-12,11.6642136 -12.3357864,12 -12.75,12 C-13.1642136,12 -13.5,11.6642136 -13.5,11.25 C-13.5,10.8357864 -13.1642136,10.5 -12.75,10.5 Z M18.75,10.5 C19.1642136,10.5 19.5,10.8357864 19.5,11.25 C19.5,11.6642136 19.1642136,12 18.75,12 C18.3357864,12 18,11.6642136 18,11.25 C18,10.8357864 18.3357864,10.5 18.75,10.5 Z M-17.25,10.5 C-16.8357864,10.5 -16.5,10.8357864 -16.5,11.25 C-16.5,11.6642136 -16.8357864,12 -17.25,12 C-17.6642136,12 -18,11.6642136 -18,11.25 C-18,10.8357864 -17.6642136,10.5 -17.25,10.5 Z M5.25,10.5 C5.66421356,10.5 6,10.8357864 6,11.25 C6,11.6642136 5.66421356,12 5.25,12 C4.83578644,12 4.5,11.6642136 4.5,11.25 C4.5,10.8357864 4.83578644,10.5 5.25,10.5 Z M-26.25,10.5 C-25.8357864,10.5 -25.5,10.8357864 -25.5,11.25 C-25.5,11.6642136 -25.8357864,12 -26.25,12 C-26.6642136,12 -27,11.6642136 -27,11.25 C-27,10.8357864 -26.6642136,10.5 -26.25,10.5 Z M54.75,10.5 C55.1642136,10.5 55.5,10.8357864 55.5,11.25 C55.5,11.6642136 55.1642136,12 54.75,12 C54.3357864,12 54,11.6642136 54,11.25 C54,10.8357864 54.3357864,10.5 54.75,10.5 Z M18.75,6 C19.1642136,6 19.5,6.33578644 19.5,6.75 C19.5,7.16421356 19.1642136,7.5 18.75,7.5 C18.3357864,7.5 18,7.16421356 18,6.75 C18,6.33578644 18.3357864,6 18.75,6 Z M32.25,6 C32.6642136,6 33,6.33578644 33,6.75 C33,7.16421356 32.6642136,7.5 32.25,7.5 C31.8357864,7.5 31.5,7.16421356 31.5,6.75 C31.5,6.33578644 31.8357864,6 32.25,6 Z M-26.25,6 C-25.8357864,6 -25.5,6.33578644 -25.5,6.75 C-25.5,7.16421356 -25.8357864,7.5 -26.25,7.5 C-26.6642136,7.5 -27,7.16421356 -27,6.75 C-27,6.33578644 -26.6642136,6 -26.25,6 Z M-8.25,6 C-7.83578644,6 -7.5,6.33578644 -7.5,6.75 C-7.5,7.16421356 -7.83578644,7.5 -8.25,7.5 C-8.66421356,7.5 -9,7.16421356 -9,6.75 C-9,6.33578644 -8.66421356,6 -8.25,6 Z M59.25,6 C59.6642136,6 60,6.33578644 60,6.75 C60,7.16421356 59.6642136,7.5 59.25,7.5 C58.8357864,7.5 58.5,7.16421356 58.5,6.75 C58.5,6.33578644 58.8357864,6 59.25,6 Z M-21.75,6 C-21.3357864,6 -21,6.33578644 -21,6.75 C-21,7.16421356 -21.3357864,7.5 -21.75,7.5 C-22.1642136,7.5 -22.5,7.16421356 -22.5,6.75 C-22.5,6.33578644 -22.1642136,6 -21.75,6 Z M-3.75,6 C-3.33578644,6 -3,6.33578644 -3,6.75 C-3,7.16421356 -3.33578644,7.5 -3.75,7.5 C-4.16421356,7.5 -4.5,7.16421356 -4.5,6.75 C-4.5,6.33578644 -4.16421356,6 -3.75,6 Z M5.25,6 C5.66421356,6 6,6.33578644 6,6.75 C6,7.16421356 5.66421356,7.5 5.25,7.5 C4.83578644,7.5 4.5,7.16421356 4.5,6.75 C4.5,6.33578644 4.83578644,6 5.25,6 Z M-12.75,6 C-12.3357864,6 -12,6.33578644 -12,6.75 C-12,7.16421356 -12.3357864,7.5 -12.75,7.5 C-13.1642136,7.5 -13.5,7.16421356 -13.5,6.75 C-13.5,6.33578644 -13.1642136,6 -12.75,6 Z M9.75,6 C10.1642136,6 10.5,6.33578644 10.5,6.75 C10.5,7.16421356 10.1642136,7.5 9.75,7.5 C9.33578644,7.5 9,7.16421356 9,6.75 C9,6.33578644 9.33578644,6 9.75,6 Z M-17.25,6 C-16.8357864,6 -16.5,6.33578644 -16.5,6.75 C-16.5,7.16421356 -16.8357864,7.5 -17.25,7.5 C-17.6642136,7.5 -18,7.16421356 -18,6.75 C-18,6.33578644 -17.6642136,6 -17.25,6 Z M36.75,6 C37.1642136,6 37.5,6.33578644 37.5,6.75 C37.5,7.16421356 37.1642136,7.5 36.75,7.5 C36.3357864,7.5 36,7.16421356 36,6.75 C36,6.33578644 36.3357864,6 36.75,6 Z M50.25,6 C50.6642136,6 51,6.33578644 51,6.75 C51,7.16421356 50.6642136,7.5 50.25,7.5 C49.8357864,7.5 49.5,7.16421356 49.5,6.75 C49.5,6.33578644 49.8357864,6 50.25,6 Z M0.75,6 C1.16421356,6 1.5,6.33578644 1.5,6.75 C1.5,7.16421356 1.16421356,7.5 0.75,7.5 C0.335786438,7.5 0,7.16421356 0,6.75 C0,6.33578644 0.335786438,6 0.75,6 Z M27.75,6 C28.1642136,6 28.5,6.33578644 28.5,6.75 C28.5,7.16421356 28.1642136,7.5 27.75,7.5 C27.3357864,7.5 27,7.16421356 27,6.75 C27,6.33578644 27.3357864,6 27.75,6 Z M14.25,6 C14.6642136,6 15,6.33578644 15,6.75 C15,7.16421356 14.6642136,7.5 14.25,7.5 C13.8357864,7.5 13.5,7.16421356 13.5,6.75 C13.5,6.33578644 13.8357864,6 14.25,6 Z M23.25,6 C23.6642136,6 24,6.33578644 24,6.75 C24,7.16421356 23.6642136,7.5 23.25,7.5 C22.8357864,7.5 22.5,7.16421356 22.5,6.75 C22.5,6.33578644 22.8357864,6 23.25,6 Z M54.75,6 C55.1642136,6 55.5,6.33578644 55.5,6.75 C55.5,7.16421356 55.1642136,7.5 54.75,7.5 C54.3357864,7.5 54,7.16421356 54,6.75 C54,6.33578644 54.3357864,6 54.75,6 Z M45.75,6 C46.1642136,6 46.5,6.33578644 46.5,6.75 C46.5,7.16421356 46.1642136,7.5 45.75,7.5 C45.3357864,7.5 45,7.16421356 45,6.75 C45,6.33578644 45.3357864,6 45.75,6 Z M41.25,6 C41.6642136,6 42,6.33578644 42,6.75 C42,7.16421356 41.6642136,7.5 41.25,7.5 C40.8357864,7.5 40.5,7.16421356 40.5,6.75 C40.5,6.33578644 40.8357864,6 41.25,6 Z M18.75,1.5 C19.1642136,1.5 19.5,1.83578644 19.5,2.25 C19.5,2.66421356 19.1642136,3 18.75,3 C18.3357864,3 18,2.66421356 18,2.25 C18,1.83578644 18.3357864,1.5 18.75,1.5 Z M50.25,1.5 C50.6642136,1.5 51,1.83578644 51,2.25 C51,2.66421356 50.6642136,3 50.25,3 C49.8357864,3 49.5,2.66421356 49.5,2.25 C49.5,1.83578644 49.8357864,1.5 50.25,1.5 Z M23.25,1.5 C23.6642136,1.5 24,1.83578644 24,2.25 C24,2.66421356 23.6642136,3 23.25,3 C22.8357864,3 22.5,2.66421356 22.5,2.25 C22.5,1.83578644 22.8357864,1.5 23.25,1.5 Z M9.75,1.5 C10.1642136,1.5 10.5,1.83578644 10.5,2.25 C10.5,2.66421356 10.1642136,3 9.75,3 C9.33578644,3 9,2.66421356 9,2.25 C9,1.83578644 9.33578644,1.5 9.75,1.5 Z M27.75,1.5 C28.1642136,1.5 28.5,1.83578644 28.5,2.25 C28.5,2.66421356 28.1642136,3 27.75,3 C27.3357864,3 27,2.66421356 27,2.25 C27,1.83578644 27.3357864,1.5 27.75,1.5 Z M54.75,1.5 C55.1642136,1.5 55.5,1.83578644 55.5,2.25 C55.5,2.66421356 55.1642136,3 54.75,3 C54.3357864,3 54,2.66421356 54,2.25 C54,1.83578644 54.3357864,1.5 54.75,1.5 Z M-26.25,1.5 C-25.8357864,1.5 -25.5,1.83578644 -25.5,2.25 C-25.5,2.66421356 -25.8357864,3 -26.25,3 C-26.6642136,3 -27,2.66421356 -27,2.25 C-27,1.83578644 -26.6642136,1.5 -26.25,1.5 Z M-17.25,1.5 C-16.8357864,1.5 -16.5,1.83578644 -16.5,2.25 C-16.5,2.66421356 -16.8357864,3 -17.25,3 C-17.6642136,3 -18,2.66421356 -18,2.25 C-18,1.83578644 -17.6642136,1.5 -17.25,1.5 Z M-21.75,1.5 C-21.3357864,1.5 -21,1.83578644 -21,2.25 C-21,2.66421356 -21.3357864,3 -21.75,3 C-22.1642136,3 -22.5,2.66421356 -22.5,2.25 C-22.5,1.83578644 -22.1642136,1.5 -21.75,1.5 Z M-12.75,1.5 C-12.3357864,1.5 -12,1.83578644 -12,2.25 C-12,2.66421356 -12.3357864,3 -12.75,3 C-13.1642136,3 -13.5,2.66421356 -13.5,2.25 C-13.5,1.83578644 -13.1642136,1.5 -12.75,1.5 Z M-8.25,1.5 C-7.83578644,1.5 -7.5,1.83578644 -7.5,2.25 C-7.5,2.66421356 -7.83578644,3 -8.25,3 C-8.66421356,3 -9,2.66421356 -9,2.25 C-9,1.83578644 -8.66421356,1.5 -8.25,1.5 Z M0.75,1.5 C1.16421356,1.5 1.5,1.83578644 1.5,2.25 C1.5,2.66421356 1.16421356,3 0.75,3 C0.335786438,3 0,2.66421356 0,2.25 C0,1.83578644 0.335786438,1.5 0.75,1.5 Z M-3.75,1.5 C-3.33578644,1.5 -3,1.83578644 -3,2.25 C-3,2.66421356 -3.33578644,3 -3.75,3 C-4.16421356,3 -4.5,2.66421356 -4.5,2.25 C-4.5,1.83578644 -4.16421356,1.5 -3.75,1.5 Z M5.25,1.5 C5.66421356,1.5 6,1.83578644 6,2.25 C6,2.66421356 5.66421356,3 5.25,3 C4.83578644,3 4.5,2.66421356 4.5,2.25 C4.5,1.83578644 4.83578644,1.5 5.25,1.5 Z M14.25,1.5 C14.6642136,1.5 15,1.83578644 15,2.25 C15,2.66421356 14.6642136,3 14.25,3 C13.8357864,3 13.5,2.66421356 13.5,2.25 C13.5,1.83578644 13.8357864,1.5 14.25,1.5 Z M45.75,1.5 C46.1642136,1.5 46.5,1.83578644 46.5,2.25 C46.5,2.66421356 46.1642136,3 45.75,3 C45.3357864,3 45,2.66421356 45,2.25 C45,1.83578644 45.3357864,1.5 45.75,1.5 Z M32.25,1.5 C32.6642136,1.5 33,1.83578644 33,2.25 C33,2.66421356 32.6642136,3 32.25,3 C31.8357864,3 31.5,2.66421356 31.5,2.25 C31.5,1.83578644 31.8357864,1.5 32.25,1.5 Z M41.25,1.5 C41.6642136,1.5 42,1.83578644 42,2.25 C42,2.66421356 41.6642136,3 41.25,3 C40.8357864,3 40.5,2.66421356 40.5,2.25 C40.5,1.83578644 40.8357864,1.5 41.25,1.5 Z M59.25,1.5 C59.6642136,1.5 60,1.83578644 60,2.25 C60,2.66421356 59.6642136,3 59.25,3 C58.8357864,3 58.5,2.66421356 58.5,2.25 C58.5,1.83578644 58.8357864,1.5 59.25,1.5 Z M36.75,1.5 C37.1642136,1.5 37.5,1.83578644 37.5,2.25 C37.5,2.66421356 37.1642136,3 36.75,3 C36.3357864,3 36,2.66421356 36,2.25 C36,1.83578644 36.3357864,1.5 36.75,1.5 Z M-3.75,-3 C-3.33578644,-3 -3,-2.66421356 -3,-2.25 C-3,-1.83578644 -3.33578644,-1.5 -3.75,-1.5 C-4.16421356,-1.5 -4.5,-1.83578644 -4.5,-2.25 C-4.5,-2.66421356 -4.16421356,-3 -3.75,-3 Z M-26.25,-3 C-25.8357864,-3 -25.5,-2.66421356 -25.5,-2.25 C-25.5,-1.83578644 -25.8357864,-1.5 -26.25,-1.5 C-26.6642136,-1.5 -27,-1.83578644 -27,-2.25 C-27,-2.66421356 -26.6642136,-3 -26.25,-3 Z M-17.25,-3 C-16.8357864,-3 -16.5,-2.66421356 -16.5,-2.25 C-16.5,-1.83578644 -16.8357864,-1.5 -17.25,-1.5 C-17.6642136,-1.5 -18,-1.83578644 -18,-2.25 C-18,-2.66421356 -17.6642136,-3 -17.25,-3 Z M-21.75,-3 C-21.3357864,-3 -21,-2.66421356 -21,-2.25 C-21,-1.83578644 -21.3357864,-1.5 -21.75,-1.5 C-22.1642136,-1.5 -22.5,-1.83578644 -22.5,-2.25 C-22.5,-2.66421356 -22.1642136,-3 -21.75,-3 Z M-12.75,-3 C-12.3357864,-3 -12,-2.66421356 -12,-2.25 C-12,-1.83578644 -12.3357864,-1.5 -12.75,-1.5 C-13.1642136,-1.5 -13.5,-1.83578644 -13.5,-2.25 C-13.5,-2.66421356 -13.1642136,-3 -12.75,-3 Z M32.25,-3 C32.6642136,-3 33,-2.66421356 33,-2.25 C33,-1.83578644 32.6642136,-1.5 32.25,-1.5 C31.8357864,-1.5 31.5,-1.83578644 31.5,-2.25 C31.5,-2.66421356 31.8357864,-3 32.25,-3 Z M50.25,-3 C50.6642136,-3 51,-2.66421356 51,-2.25 C51,-1.83578644 50.6642136,-1.5 50.25,-1.5 C49.8357864,-1.5 49.5,-1.83578644 49.5,-2.25 C49.5,-2.66421356 49.8357864,-3 50.25,-3 Z M59.25,-3 C59.6642136,-3 60,-2.66421356 60,-2.25 C60,-1.83578644 59.6642136,-1.5 59.25,-1.5 C58.8357864,-1.5 58.5,-1.83578644 58.5,-2.25 C58.5,-2.66421356 58.8357864,-3 59.25,-3 Z M27.75,-3 C28.1642136,-3 28.5,-2.66421356 28.5,-2.25 C28.5,-1.83578644 28.1642136,-1.5 27.75,-1.5 C27.3357864,-1.5 27,-1.83578644 27,-2.25 C27,-2.66421356 27.3357864,-3 27.75,-3 Z M36.75,-3 C37.1642136,-3 37.5,-2.66421356 37.5,-2.25 C37.5,-1.83578644 37.1642136,-1.5 36.75,-1.5 C36.3357864,-1.5 36,-1.83578644 36,-2.25 C36,-2.66421356 36.3357864,-3 36.75,-3 Z M41.25,-3 C41.6642136,-3 42,-2.66421356 42,-2.25 C42,-1.83578644 41.6642136,-1.5 41.25,-1.5 C40.8357864,-1.5 40.5,-1.83578644 40.5,-2.25 C40.5,-2.66421356 40.8357864,-3 41.25,-3 Z M23.25,-3 C23.6642136,-3 24,-2.66421356 24,-2.25 C24,-1.83578644 23.6642136,-1.5 23.25,-1.5 C22.8357864,-1.5 22.5,-1.83578644 22.5,-2.25 C22.5,-2.66421356 22.8357864,-3 23.25,-3 Z M45.75,-3 C46.1642136,-3 46.5,-2.66421356 46.5,-2.25 C46.5,-1.83578644 46.1642136,-1.5 45.75,-1.5 C45.3357864,-1.5 45,-1.83578644 45,-2.25 C45,-2.66421356 45.3357864,-3 45.75,-3 Z M9.75,-3 C10.1642136,-3 10.5,-2.66421356 10.5,-2.25 C10.5,-1.83578644 10.1642136,-1.5 9.75,-1.5 C9.33578644,-1.5 9,-1.83578644 9,-2.25 C9,-2.66421356 9.33578644,-3 9.75,-3 Z M18.75,-3 C19.1642136,-3 19.5,-2.66421356 19.5,-2.25 C19.5,-1.83578644 19.1642136,-1.5 18.75,-1.5 C18.3357864,-1.5 18,-1.83578644 18,-2.25 C18,-2.66421356 18.3357864,-3 18.75,-3 Z M14.25,-3 C14.6642136,-3 15,-2.66421356 15,-2.25 C15,-1.83578644 14.6642136,-1.5 14.25,-1.5 C13.8357864,-1.5 13.5,-1.83578644 13.5,-2.25 C13.5,-2.66421356 13.8357864,-3 14.25,-3 Z M54.75,-3 C55.1642136,-3 55.5,-2.66421356 55.5,-2.25 C55.5,-1.83578644 55.1642136,-1.5 54.75,-1.5 C54.3357864,-1.5 54,-1.83578644 54,-2.25 C54,-2.66421356 54.3357864,-3 54.75,-3 Z M-8.25,-3 C-7.83578644,-3 -7.5,-2.66421356 -7.5,-2.25 C-7.5,-1.83578644 -7.83578644,-1.5 -8.25,-1.5 C-8.66421356,-1.5 -9,-1.83578644 -9,-2.25 C-9,-2.66421356 -8.66421356,-3 -8.25,-3 Z M5.25,-3 C5.66421356,-3 6,-2.66421356 6,-2.25 C6,-1.83578644 5.66421356,-1.5 5.25,-1.5 C4.83578644,-1.5 4.5,-1.83578644 4.5,-2.25 C4.5,-2.66421356 4.83578644,-3 5.25,-3 Z M0.75,-3 C1.16421356,-3 1.5,-2.66421356 1.5,-2.25 C1.5,-1.83578644 1.16421356,-1.5 0.75,-1.5 C0.335786438,-1.5 0,-1.83578644 0,-2.25 C0,-2.66421356 0.335786438,-3 0.75,-3 Z M45.75,-7.5 C46.1642136,-7.5 46.5,-7.16421356 46.5,-6.75 C46.5,-6.33578644 46.1642136,-6 45.75,-6 C45.3357864,-6 45,-6.33578644 45,-6.75 C45,-7.16421356 45.3357864,-7.5 45.75,-7.5 Z M18.75,-7.5 C19.1642136,-7.5 19.5,-7.16421356 19.5,-6.75 C19.5,-6.33578644 19.1642136,-6 18.75,-6 C18.3357864,-6 18,-6.33578644 18,-6.75 C18,-7.16421356 18.3357864,-7.5 18.75,-7.5 Z M32.25,-7.5 C32.6642136,-7.5 33,-7.16421356 33,-6.75 C33,-6.33578644 32.6642136,-6 32.25,-6 C31.8357864,-6 31.5,-6.33578644 31.5,-6.75 C31.5,-7.16421356 31.8357864,-7.5 32.25,-7.5 Z M9.75,-7.5 C10.1642136,-7.5 10.5,-7.16421356 10.5,-6.75 C10.5,-6.33578644 10.1642136,-6 9.75,-6 C9.33578644,-6 9,-6.33578644 9,-6.75 C9,-7.16421356 9.33578644,-7.5 9.75,-7.5 Z M23.25,-7.5 C23.6642136,-7.5 24,-7.16421356 24,-6.75 C24,-6.33578644 23.6642136,-6 23.25,-6 C22.8357864,-6 22.5,-6.33578644 22.5,-6.75 C22.5,-7.16421356 22.8357864,-7.5 23.25,-7.5 Z M14.25,-7.5 C14.6642136,-7.5 15,-7.16421356 15,-6.75 C15,-6.33578644 14.6642136,-6 14.25,-6 C13.8357864,-6 13.5,-6.33578644 13.5,-6.75 C13.5,-7.16421356 13.8357864,-7.5 14.25,-7.5 Z M36.75,-7.5 C37.1642136,-7.5 37.5,-7.16421356 37.5,-6.75 C37.5,-6.33578644 37.1642136,-6 36.75,-6 C36.3357864,-6 36,-6.33578644 36,-6.75 C36,-7.16421356 36.3357864,-7.5 36.75,-7.5 Z M27.75,-7.5 C28.1642136,-7.5 28.5,-7.16421356 28.5,-6.75 C28.5,-6.33578644 28.1642136,-6 27.75,-6 C27.3357864,-6 27,-6.33578644 27,-6.75 C27,-7.16421356 27.3357864,-7.5 27.75,-7.5 Z M41.25,-7.5 C41.6642136,-7.5 42,-7.16421356 42,-6.75 C42,-6.33578644 41.6642136,-6 41.25,-6 C40.8357864,-6 40.5,-6.33578644 40.5,-6.75 C40.5,-7.16421356 40.8357864,-7.5 41.25,-7.5 Z M59.25,-7.5 C59.6642136,-7.5 60,-7.16421356 60,-6.75 C60,-6.33578644 59.6642136,-6 59.25,-6 C58.8357864,-6 58.5,-6.33578644 58.5,-6.75 C58.5,-7.16421356 58.8357864,-7.5 59.25,-7.5 Z M54.75,-7.5 C55.1642136,-7.5 55.5,-7.16421356 55.5,-6.75 C55.5,-6.33578644 55.1642136,-6 54.75,-6 C54.3357864,-6 54,-6.33578644 54,-6.75 C54,-7.16421356 54.3357864,-7.5 54.75,-7.5 Z M-26.25,-7.5 C-25.8357864,-7.5 -25.5,-7.16421356 -25.5,-6.75 C-25.5,-6.33578644 -25.8357864,-6 -26.25,-6 C-26.6642136,-6 -27,-6.33578644 -27,-6.75 C-27,-7.16421356 -26.6642136,-7.5 -26.25,-7.5 Z M-17.25,-7.5 C-16.8357864,-7.5 -16.5,-7.16421356 -16.5,-6.75 C-16.5,-6.33578644 -16.8357864,-6 -17.25,-6 C-17.6642136,-6 -18,-6.33578644 -18,-6.75 C-18,-7.16421356 -17.6642136,-7.5 -17.25,-7.5 Z M-21.75,-7.5 C-21.3357864,-7.5 -21,-7.16421356 -21,-6.75 C-21,-6.33578644 -21.3357864,-6 -21.75,-6 C-22.1642136,-6 -22.5,-6.33578644 -22.5,-6.75 C-22.5,-7.16421356 -22.1642136,-7.5 -21.75,-7.5 Z M-12.75,-7.5 C-12.3357864,-7.5 -12,-7.16421356 -12,-6.75 C-12,-6.33578644 -12.3357864,-6 -12.75,-6 C-13.1642136,-6 -13.5,-6.33578644 -13.5,-6.75 C-13.5,-7.16421356 -13.1642136,-7.5 -12.75,-7.5 Z M-8.25,-7.5 C-7.83578644,-7.5 -7.5,-7.16421356 -7.5,-6.75 C-7.5,-6.33578644 -7.83578644,-6 -8.25,-6 C-8.66421356,-6 -9,-6.33578644 -9,-6.75 C-9,-7.16421356 -8.66421356,-7.5 -8.25,-7.5 Z M0.75,-7.5 C1.16421356,-7.5 1.5,-7.16421356 1.5,-6.75 C1.5,-6.33578644 1.16421356,-6 0.75,-6 C0.335786438,-6 0,-6.33578644 0,-6.75 C0,-7.16421356 0.335786438,-7.5 0.75,-7.5 Z M-3.75,-7.5 C-3.33578644,-7.5 -3,-7.16421356 -3,-6.75 C-3,-6.33578644 -3.33578644,-6 -3.75,-6 C-4.16421356,-6 -4.5,-6.33578644 -4.5,-6.75 C-4.5,-7.16421356 -4.16421356,-7.5 -3.75,-7.5 Z M5.25,-7.5 C5.66421356,-7.5 6,-7.16421356 6,-6.75 C6,-6.33578644 5.66421356,-6 5.25,-6 C4.83578644,-6 4.5,-6.33578644 4.5,-6.75 C4.5,-7.16421356 4.83578644,-7.5 5.25,-7.5 Z M50.25,-7.5 C50.6642136,-7.5 51,-7.16421356 51,-6.75 C51,-6.33578644 50.6642136,-6 50.25,-6 C49.8357864,-6 49.5,-6.33578644 49.5,-6.75 C49.5,-7.16421356 49.8357864,-7.5 50.25,-7.5 Z M27.75,-12 C28.1642136,-12 28.5,-11.6642136 28.5,-11.25 C28.5,-10.8357864 28.1642136,-10.5 27.75,-10.5 C27.3357864,-10.5 27,-10.8357864 27,-11.25 C27,-11.6642136 27.3357864,-12 27.75,-12 Z M32.25,-12 C32.6642136,-12 33,-11.6642136 33,-11.25 C33,-10.8357864 32.6642136,-10.5 32.25,-10.5 C31.8357864,-10.5 31.5,-10.8357864 31.5,-11.25 C31.5,-11.6642136 31.8357864,-12 32.25,-12 Z M59.25,-12 C59.6642136,-12 60,-11.6642136 60,-11.25 C60,-10.8357864 59.6642136,-10.5 59.25,-10.5 C58.8357864,-10.5 58.5,-10.8357864 58.5,-11.25 C58.5,-11.6642136 58.8357864,-12 59.25,-12 Z M50.25,-12 C50.6642136,-12 51,-11.6642136 51,-11.25 C51,-10.8357864 50.6642136,-10.5 50.25,-10.5 C49.8357864,-10.5 49.5,-10.8357864 49.5,-11.25 C49.5,-11.6642136 49.8357864,-12 50.25,-12 Z M54.75,-12 C55.1642136,-12 55.5,-11.6642136 55.5,-11.25 C55.5,-10.8357864 55.1642136,-10.5 54.75,-10.5 C54.3357864,-10.5 54,-10.8357864 54,-11.25 C54,-11.6642136 54.3357864,-12 54.75,-12 Z M45.75,-12 C46.1642136,-12 46.5,-11.6642136 46.5,-11.25 C46.5,-10.8357864 46.1642136,-10.5 45.75,-10.5 C45.3357864,-10.5 45,-10.8357864 45,-11.25 C45,-11.6642136 45.3357864,-12 45.75,-12 Z M41.25,-12 C41.6642136,-12 42,-11.6642136 42,-11.25 C42,-10.8357864 41.6642136,-10.5 41.25,-10.5 C40.8357864,-10.5 40.5,-10.8357864 40.5,-11.25 C40.5,-11.6642136 40.8357864,-12 41.25,-12 Z M-21.75,-12 C-21.3357864,-12 -21,-11.6642136 -21,-11.25 C-21,-10.8357864 -21.3357864,-10.5 -21.75,-10.5 C-22.1642136,-10.5 -22.5,-10.8357864 -22.5,-11.25 C-22.5,-11.6642136 -22.1642136,-12 -21.75,-12 Z M36.75,-12 C37.1642136,-12 37.5,-11.6642136 37.5,-11.25 C37.5,-10.8357864 37.1642136,-10.5 36.75,-10.5 C36.3357864,-10.5 36,-10.8357864 36,-11.25 C36,-11.6642136 36.3357864,-12 36.75,-12 Z M18.75,-12 C19.1642136,-12 19.5,-11.6642136 19.5,-11.25 C19.5,-10.8357864 19.1642136,-10.5 18.75,-10.5 C18.3357864,-10.5 18,-10.8357864 18,-11.25 C18,-11.6642136 18.3357864,-12 18.75,-12 Z M9.75,-12 C10.1642136,-12 10.5,-11.6642136 10.5,-11.25 C10.5,-10.8357864 10.1642136,-10.5 9.75,-10.5 C9.33578644,-10.5 9,-10.8357864 9,-11.25 C9,-11.6642136 9.33578644,-12 9.75,-12 Z M14.25,-12 C14.6642136,-12 15,-11.6642136 15,-11.25 C15,-10.8357864 14.6642136,-10.5 14.25,-10.5 C13.8357864,-10.5 13.5,-10.8357864 13.5,-11.25 C13.5,-11.6642136 13.8357864,-12 14.25,-12 Z M5.25,-12 C5.66421356,-12 6,-11.6642136 6,-11.25 C6,-10.8357864 5.66421356,-10.5 5.25,-10.5 C4.83578644,-10.5 4.5,-10.8357864 4.5,-11.25 C4.5,-11.6642136 4.83578644,-12 5.25,-12 Z M-12.75,-12 C-12.3357864,-12 -12,-11.6642136 -12,-11.25 C-12,-10.8357864 -12.3357864,-10.5 -12.75,-10.5 C-13.1642136,-10.5 -13.5,-10.8357864 -13.5,-11.25 C-13.5,-11.6642136 -13.1642136,-12 -12.75,-12 Z M-3.75,-12 C-3.33578644,-12 -3,-11.6642136 -3,-11.25 C-3,-10.8357864 -3.33578644,-10.5 -3.75,-10.5 C-4.16421356,-10.5 -4.5,-10.8357864 -4.5,-11.25 C-4.5,-11.6642136 -4.16421356,-12 -3.75,-12 Z M0.75,-12 C1.16421356,-12 1.5,-11.6642136 1.5,-11.25 C1.5,-10.8357864 1.16421356,-10.5 0.75,-10.5 C0.335786438,-10.5 0,-10.8357864 0,-11.25 C0,-11.6642136 0.335786438,-12 0.75,-12 Z M-8.25,-12 C-7.83578644,-12 -7.5,-11.6642136 -7.5,-11.25 C-7.5,-10.8357864 -7.83578644,-10.5 -8.25,-10.5 C-8.66421356,-10.5 -9,-10.8357864 -9,-11.25 C-9,-11.6642136 -8.66421356,-12 -8.25,-12 Z M-26.25,-12 C-25.8357864,-12 -25.5,-11.6642136 -25.5,-11.25 C-25.5,-10.8357864 -25.8357864,-10.5 -26.25,-10.5 C-26.6642136,-10.5 -27,-10.8357864 -27,-11.25 C-27,-11.6642136 -26.6642136,-12 -26.25,-12 Z M-17.25,-12 C-16.8357864,-12 -16.5,-11.6642136 -16.5,-11.25 C-16.5,-10.8357864 -16.8357864,-10.5 -17.25,-10.5 C-17.6642136,-10.5 -18,-10.8357864 -18,-11.25 C-18,-11.6642136 -17.6642136,-12 -17.25,-12 Z M23.25,-12 C23.6642136,-12 24,-11.6642136 24,-11.25 C24,-10.8357864 23.6642136,-10.5 23.25,-10.5 C22.8357864,-10.5 22.5,-10.8357864 22.5,-11.25 C22.5,-11.6642136 22.8357864,-12 23.25,-12 Z M23.25,-16.5 C23.6642136,-16.5 24,-16.1642136 24,-15.75 C24,-15.3357864 23.6642136,-15 23.25,-15 C22.8357864,-15 22.5,-15.3357864 22.5,-15.75 C22.5,-16.1642136 22.8357864,-16.5 23.25,-16.5 Z M27.75,-16.5 C28.1642136,-16.5 28.5,-16.1642136 28.5,-15.75 C28.5,-15.3357864 28.1642136,-15 27.75,-15 C27.3357864,-15 27,-15.3357864 27,-15.75 C27,-16.1642136 27.3357864,-16.5 27.75,-16.5 Z M14.25,-16.5 C14.6642136,-16.5 15,-16.1642136 15,-15.75 C15,-15.3357864 14.6642136,-15 14.25,-15 C13.8357864,-15 13.5,-15.3357864 13.5,-15.75 C13.5,-16.1642136 13.8357864,-16.5 14.25,-16.5 Z M-17.25,-16.5 C-16.8357864,-16.5 -16.5,-16.1642136 -16.5,-15.75 C-16.5,-15.3357864 -16.8357864,-15 -17.25,-15 C-17.6642136,-15 -18,-15.3357864 -18,-15.75 C-18,-16.1642136 -17.6642136,-16.5 -17.25,-16.5 Z M-26.25,-16.5 C-25.8357864,-16.5 -25.5,-16.1642136 -25.5,-15.75 C-25.5,-15.3357864 -25.8357864,-15 -26.25,-15 C-26.6642136,-15 -27,-15.3357864 -27,-15.75 C-27,-16.1642136 -26.6642136,-16.5 -26.25,-16.5 Z M36.75,-16.5 C37.1642136,-16.5 37.5,-16.1642136 37.5,-15.75 C37.5,-15.3357864 37.1642136,-15 36.75,-15 C36.3357864,-15 36,-15.3357864 36,-15.75 C36,-16.1642136 36.3357864,-16.5 36.75,-16.5 Z M32.25,-16.5 C32.6642136,-16.5 33,-16.1642136 33,-15.75 C33,-15.3357864 32.6642136,-15 32.25,-15 C31.8357864,-15 31.5,-15.3357864 31.5,-15.75 C31.5,-16.1642136 31.8357864,-16.5 32.25,-16.5 Z M41.25,-16.5 C41.6642136,-16.5 42,-16.1642136 42,-15.75 C42,-15.3357864 41.6642136,-15 41.25,-15 C40.8357864,-15 40.5,-15.3357864 40.5,-15.75 C40.5,-16.1642136 40.8357864,-16.5 41.25,-16.5 Z M45.75,-16.5 C46.1642136,-16.5 46.5,-16.1642136 46.5,-15.75 C46.5,-15.3357864 46.1642136,-15 45.75,-15 C45.3357864,-15 45,-15.3357864 45,-15.75 C45,-16.1642136 45.3357864,-16.5 45.75,-16.5 Z M18.75,-16.5 C19.1642136,-16.5 19.5,-16.1642136 19.5,-15.75 C19.5,-15.3357864 19.1642136,-15 18.75,-15 C18.3357864,-15 18,-15.3357864 18,-15.75 C18,-16.1642136 18.3357864,-16.5 18.75,-16.5 Z M54.75,-16.5 C55.1642136,-16.5 55.5,-16.1642136 55.5,-15.75 C55.5,-15.3357864 55.1642136,-15 54.75,-15 C54.3357864,-15 54,-15.3357864 54,-15.75 C54,-16.1642136 54.3357864,-16.5 54.75,-16.5 Z M50.25,-16.5 C50.6642136,-16.5 51,-16.1642136 51,-15.75 C51,-15.3357864 50.6642136,-15 50.25,-15 C49.8357864,-15 49.5,-15.3357864 49.5,-15.75 C49.5,-16.1642136 49.8357864,-16.5 50.25,-16.5 Z M-21.75,-16.5 C-21.3357864,-16.5 -21,-16.1642136 -21,-15.75 C-21,-15.3357864 -21.3357864,-15 -21.75,-15 C-22.1642136,-15 -22.5,-15.3357864 -22.5,-15.75 C-22.5,-16.1642136 -22.1642136,-16.5 -21.75,-16.5 Z M-12.75,-16.5 C-12.3357864,-16.5 -12,-16.1642136 -12,-15.75 C-12,-15.3357864 -12.3357864,-15 -12.75,-15 C-13.1642136,-15 -13.5,-15.3357864 -13.5,-15.75 C-13.5,-16.1642136 -13.1642136,-16.5 -12.75,-16.5 Z M-8.25,-16.5 C-7.83578644,-16.5 -7.5,-16.1642136 -7.5,-15.75 C-7.5,-15.3357864 -7.83578644,-15 -8.25,-15 C-8.66421356,-15 -9,-15.3357864 -9,-15.75 C-9,-16.1642136 -8.66421356,-16.5 -8.25,-16.5 Z M0.75,-16.5 C1.16421356,-16.5 1.5,-16.1642136 1.5,-15.75 C1.5,-15.3357864 1.16421356,-15 0.75,-15 C0.335786438,-15 0,-15.3357864 0,-15.75 C0,-16.1642136 0.335786438,-16.5 0.75,-16.5 Z M-3.75,-16.5 C-3.33578644,-16.5 -3,-16.1642136 -3,-15.75 C-3,-15.3357864 -3.33578644,-15 -3.75,-15 C-4.16421356,-15 -4.5,-15.3357864 -4.5,-15.75 C-4.5,-16.1642136 -4.16421356,-16.5 -3.75,-16.5 Z M5.25,-16.5 C5.66421356,-16.5 6,-16.1642136 6,-15.75 C6,-15.3357864 5.66421356,-15 5.25,-15 C4.83578644,-15 4.5,-15.3357864 4.5,-15.75 C4.5,-16.1642136 4.83578644,-16.5 5.25,-16.5 Z M9.75,-16.5 C10.1642136,-16.5 10.5,-16.1642136 10.5,-15.75 C10.5,-15.3357864 10.1642136,-15 9.75,-15 C9.33578644,-15 9,-15.3357864 9,-15.75 C9,-16.1642136 9.33578644,-16.5 9.75,-16.5 Z M59.25,-16.5 C59.6642136,-16.5 60,-16.1642136 60,-15.75 C60,-15.3357864 59.6642136,-15 59.25,-15 C58.8357864,-15 58.5,-15.3357864 58.5,-15.75 C58.5,-16.1642136 58.8357864,-16.5 59.25,-16.5 Z M18.75,-21 C19.1642136,-21 19.5,-20.6642136 19.5,-20.25 C19.5,-19.8357864 19.1642136,-19.5 18.75,-19.5 C18.3357864,-19.5 18,-19.8357864 18,-20.25 C18,-20.6642136 18.3357864,-21 18.75,-21 Z M23.25,-21 C23.6642136,-21 24,-20.6642136 24,-20.25 C24,-19.8357864 23.6642136,-19.5 23.25,-19.5 C22.8357864,-19.5 22.5,-19.8357864 22.5,-20.25 C22.5,-20.6642136 22.8357864,-21 23.25,-21 Z M-8.25,-21 C-7.83578644,-21 -7.5,-20.6642136 -7.5,-20.25 C-7.5,-19.8357864 -7.83578644,-19.5 -8.25,-19.5 C-8.66421356,-19.5 -9,-19.8357864 -9,-20.25 C-9,-20.6642136 -8.66421356,-21 -8.25,-21 Z M-26.25,-21 C-25.8357864,-21 -25.5,-20.6642136 -25.5,-20.25 C-25.5,-19.8357864 -25.8357864,-19.5 -26.25,-19.5 C-26.6642136,-19.5 -27,-19.8357864 -27,-20.25 C-27,-20.6642136 -26.6642136,-21 -26.25,-21 Z M-17.25,-21 C-16.8357864,-21 -16.5,-20.6642136 -16.5,-20.25 C-16.5,-19.8357864 -16.8357864,-19.5 -17.25,-19.5 C-17.6642136,-19.5 -18,-19.8357864 -18,-20.25 C-18,-20.6642136 -17.6642136,-21 -17.25,-21 Z M-21.75,-21 C-21.3357864,-21 -21,-20.6642136 -21,-20.25 C-21,-19.8357864 -21.3357864,-19.5 -21.75,-19.5 C-22.1642136,-19.5 -22.5,-19.8357864 -22.5,-20.25 C-22.5,-20.6642136 -22.1642136,-21 -21.75,-21 Z M-12.75,-21 C-12.3357864,-21 -12,-20.6642136 -12,-20.25 C-12,-19.8357864 -12.3357864,-19.5 -12.75,-19.5 C-13.1642136,-19.5 -13.5,-19.8357864 -13.5,-20.25 C-13.5,-20.6642136 -13.1642136,-21 -12.75,-21 Z M50.25,-21 C50.6642136,-21 51,-20.6642136 51,-20.25 C51,-19.8357864 50.6642136,-19.5 50.25,-19.5 C49.8357864,-19.5 49.5,-19.8357864 49.5,-20.25 C49.5,-20.6642136 49.8357864,-21 50.25,-21 Z M9.75,-21 C10.1642136,-21 10.5,-20.6642136 10.5,-20.25 C10.5,-19.8357864 10.1642136,-19.5 9.75,-19.5 C9.33578644,-19.5 9,-19.8357864 9,-20.25 C9,-20.6642136 9.33578644,-21 9.75,-21 Z M59.25,-21 C59.6642136,-21 60,-20.6642136 60,-20.25 C60,-19.8357864 59.6642136,-19.5 59.25,-19.5 C58.8357864,-19.5 58.5,-19.8357864 58.5,-20.25 C58.5,-20.6642136 58.8357864,-21 59.25,-21 Z M27.75,-21 C28.1642136,-21 28.5,-20.6642136 28.5,-20.25 C28.5,-19.8357864 28.1642136,-19.5 27.75,-19.5 C27.3357864,-19.5 27,-19.8357864 27,-20.25 C27,-20.6642136 27.3357864,-21 27.75,-21 Z M54.75,-21 C55.1642136,-21 55.5,-20.6642136 55.5,-20.25 C55.5,-19.8357864 55.1642136,-19.5 54.75,-19.5 C54.3357864,-19.5 54,-19.8357864 54,-20.25 C54,-20.6642136 54.3357864,-21 54.75,-21 Z M45.75,-21 C46.1642136,-21 46.5,-20.6642136 46.5,-20.25 C46.5,-19.8357864 46.1642136,-19.5 45.75,-19.5 C45.3357864,-19.5 45,-19.8357864 45,-20.25 C45,-20.6642136 45.3357864,-21 45.75,-21 Z M41.25,-21 C41.6642136,-21 42,-20.6642136 42,-20.25 C42,-19.8357864 41.6642136,-19.5 41.25,-19.5 C40.8357864,-19.5 40.5,-19.8357864 40.5,-20.25 C40.5,-20.6642136 40.8357864,-21 41.25,-21 Z M32.25,-21 C32.6642136,-21 33,-20.6642136 33,-20.25 C33,-19.8357864 32.6642136,-19.5 32.25,-19.5 C31.8357864,-19.5 31.5,-19.8357864 31.5,-20.25 C31.5,-20.6642136 31.8357864,-21 32.25,-21 Z M36.75,-21 C37.1642136,-21 37.5,-20.6642136 37.5,-20.25 C37.5,-19.8357864 37.1642136,-19.5 36.75,-19.5 C36.3357864,-19.5 36,-19.8357864 36,-20.25 C36,-20.6642136 36.3357864,-21 36.75,-21 Z M5.25,-21 C5.66421356,-21 6,-20.6642136 6,-20.25 C6,-19.8357864 5.66421356,-19.5 5.25,-19.5 C4.83578644,-19.5 4.5,-19.8357864 4.5,-20.25 C4.5,-20.6642136 4.83578644,-21 5.25,-21 Z M-3.75,-21 C-3.33578644,-21 -3,-20.6642136 -3,-20.25 C-3,-19.8357864 -3.33578644,-19.5 -3.75,-19.5 C-4.16421356,-19.5 -4.5,-19.8357864 -4.5,-20.25 C-4.5,-20.6642136 -4.16421356,-21 -3.75,-21 Z M0.75,-21 C1.16421356,-21 1.5,-20.6642136 1.5,-20.25 C1.5,-19.8357864 1.16421356,-19.5 0.75,-19.5 C0.335786438,-19.5 0,-19.8357864 0,-20.25 C0,-20.6642136 0.335786438,-21 0.75,-21 Z M14.25,-21 C14.6642136,-21 15,-20.6642136 15,-20.25 C15,-19.8357864 14.6642136,-19.5 14.25,-19.5 C13.8357864,-19.5 13.5,-19.8357864 13.5,-20.25 C13.5,-20.6642136 13.8357864,-21 14.25,-21 Z" id="Combined-Shape" fill="#6A78D1" mask="url(#mask-2)"></path>
                </g>
            </g>
        </g>
    </g>
</svg>